  0
SECTION
  2
HEADER
  9
$ACADVER
  1
AC1014
  9
$HANDSEED
  5
FFFF
  9
$MEASUREMENT
 70
     1
  0
ENDSEC
  0
SECTION
  2
TABLES
  0
TABLE
  2
VPORT
  5
8
330
0
100
AcDbSymbolTable
 70
     4
  0
VPORT
  5
2E
330
8
100
AcDbSymbolTableRecord
100
AcDbViewportTableRecord
  2
*ACTIVE
 70
     0
 10
0.0
 20
0.0
 11
1.0
 21
1.0
 12
210.0
 22
148.5
 13
0.0
 23
0.0
 14
10.0
 24
10.0
 15
10.0
 25
10.0
 16
0.0
 26
0.0
 36
1.0
 17
0.0
 27
0.0
 37
0.0
 40
341.0
 41
1.24
 42
50.0
 43
0.0
 44
0.0
 50
0.0
 51
0.0
 71
     0
 72
   100
 73
     1
 74
     3
 75
     0
 76
     0
 77
     0
 78
     0
  0
ENDTAB
  0
TABLE
  2
LTYPE
  5
5
330
0
100
AcDbSymbolTable
 70
     1
  0
LTYPE
  5
14
330
5
100
AcDbSymbolTableRecord
100
AcDbLinetypeTableRecord
  2
BYBLOCK
 70
     0
  3

 72
    65
 73
     0
 40
0.0
  0
LTYPE
  5
15
330
5
100
AcDbSymbolTableRecord
100
AcDbLinetypeTableRecord
  2
BYLAYER
 70
     0
  3

 72
    65
 73
     0
 40
0.0
  0
LTYPE
  5
16
330
5
100
AcDbSymbolTableRecord
100
AcDbLinetypeTableRecord
  2
CONTINUOUS
 70
     0
  3
Solid line
 72
    65
 73
     0
 40
0.0
  0
ENDTAB
  0
TABLE
  2
LAYER
  5
2
100
AcDbSymbolTable
 70
2
  0
LAYER
  5
50
100
AcDbSymbolTableRecord
100
AcDbLayerTableRecord
  2
0
 70
0
  6
CONTINUOUS
  0
LAYER
  5
51
100
AcDbSymbolTableRecord
100
AcDbLayerTableRecord
  2
Barrier_Drawing_200mm_v2
 70
0
  6
CONTINUOUS
  0
ENDTAB
  0
TABLE
  2
STYLE
  5
3
330
0
100
AcDbSymbolTable
 70
     1
  0
STYLE
  5
11
330
3
100
AcDbSymbolTableRecord
100
AcDbTextStyleTableRecord
  2
STANDARD
 70
     0
 40
0.0
 41
1.0
 50
0.0
 71
     0
 42
2.5
  3
txt
  4

  0
ENDTAB
  0
TABLE
  2
VIEW
  5
6
330
0
100
AcDbSymbolTable
 70
     0
  0
ENDTAB
  0
TABLE
  2
UCS
  5
7
330
0
100
AcDbSymbolTable
 70
     0
  0
ENDTAB
  0
TABLE
  2
APPID
  5
9
330
0
100
AcDbSymbolTable
 70
     2
  0
APPID
  5
12
330
9
100
AcDbSymbolTableRecord
100
AcDbRegAppTableRecord
  2
ACAD
 70
     0
  0
ENDTAB
  0
TABLE
  2
DIMSTYLE
  5
A
330
0
100
AcDbSymbolTable
 70
     1
  0
DIMSTYLE
105
27
330
A
100
AcDbSymbolTableRecord
100
AcDbDimStyleTableRecord
  2
ISO-25
 70
     0
  3

  4

  5

  6

  7

 40
1.0
 41
2.5
 42
0.625
 43
3.75
 44
1.25
 45
0.0
 46
0.0
 47
0.0
 48
0.0
140
2.5
141
2.5
142
0.0
143
0.03937007874016
144
1.0
145
0.0
146
1.0
147
0.625
 71
     0
 72
     0
 73
     0
 74
     0
 75
     0
 76
     0
 77
     1
 78
     8
170
     0
171
     3
172
     1
173
     0
174
     0
175
     0
176
     0
177
     0
178
     0
270
     2
271
     2
272
     2
273
     2
274
     3
340
11
275
     0
280
     0
281
     0
282
     0
283
     0
284
     8
285
     0
286
     0
287
     3
288
     0
  0
ENDTAB
  0
TABLE
  2
BLOCK_RECORD
  5
1
330
0
100
AcDbSymbolTable
 70
     1
  0
BLOCK_RECORD
  5
1F
330
1
100
AcDbSymbolTableRecord
100
AcDbBlockTableRecord
  2
*MODEL_SPACE
  0
BLOCK_RECORD
  5
1B
330
1
100
AcDbSymbolTableRecord
100
AcDbBlockTableRecord
  2
*PAPER_SPACE
  0
ENDTAB
  0
ENDSEC
  0
SECTION
  2
BLOCKS
  0
BLOCK
  5
20
330
1F
100
AcDbEntity
  8
0
100
AcDbBlockBegin
  2
*MODEL_SPACE
 70
     0
 10
0.0
 20
0.0
 30
0.0
  3
*MODEL_SPACE
  1

  0
ENDBLK
  5
21
330
1F
100
AcDbEntity
  8
0
100
AcDbBlockEnd
  0
BLOCK
  5
1C
330
1B
100
AcDbEntity
 67
     1
  8
0
100
AcDbBlockBegin
  2
*PAPER_SPACE
  1

  0
ENDBLK
  5
1D
330
1B
100
AcDbEntity
 67
     1
  8
0
100
AcDbBlockEnd
  0
ENDSEC
  0
SECTION
  2
ENTITIES
  0
LINE
  5
100
100
AcDbEntity
  8
Barrier_Drawing_200mm_v2
 62
7
100
AcDbLine
 10
333.006502
 20
345.496598
 30
0.0
 11
333.006502
 21
305.522016
 31
0.0
  0
LINE
  5
101
100
AcDbEntity
  8
Barrier_Drawing_200mm_v2
 62
7
100
AcDbLine
 10
333.006502
 20
305.522016
 30
0.0
 11
532.870701
 21
305.522016
 31
0.0
  0
LINE
  5
102
100
AcDbEntity
  8
Barrier_Drawing_200mm_v2
 62
7
100
AcDbLine
 10
532.870701
 20
305.522016
 30
0.0
 11
532.870701
 21
345.496598
 31
0.0
  0
LINE
  5
103
100
AcDbEntity
  8
Barrier_Drawing_200mm_v2
 62
7
100
AcDbLine
 10
532.870701
 20
345.496598
 30
0.0
 11
333.006502
 21
345.496598
 31
0.0
  0
SPLINE
  5
104
100
AcDbEntity
  8
Barrier_Drawing_200mm_v2
 62
7
100
AcDbSpline
 70
0
 71
3
 72
19
 73
15
 74
13
 40
0.000000
 40
0.000000
 40
0.000000
 40
0.000000
 40
0.784079
 40
1.544916
 40
2.328995
 40
3.113075
 40
3.873912
 40
4.657991
 40
5.442070
 40
6.202907
 40
6.986986
 40
7.771066
 40
8.531902
 40
9.315982
 40
9.315982
 40
9.315982
 40
9.315982
 10
361.487825
 20
310.519274
 30
0.0
 10
361.529044
 20
310.254920
 30
0.0
 10
361.610260
 20
309.734048
 30
0.0
 10
362.207279
 20
309.160614
 30
0.0
 10
362.986062
 20
308.948124
 30
0.0
 10
363.773022
 20
309.160614
 30
0.0
 10
364.345994
 20
309.734048
 30
0.0
 10
364.558642
 20
310.519274
 30
0.0
 10
364.345994
 20
311.304500
 30
0.0
 10
363.773022
 20
311.877934
 30
0.0
 10
362.986062
 20
312.090424
 30
0.0
 10
362.207279
 20
311.877934
 30
0.0
 10
361.610260
 20
311.304500
 30
0.0
 10
361.529044
 20
310.783628
 30
0.0
 10
361.487825
 20
310.519274
 30
0.0
 11
361.487825
 21
310.519274
 31
0.0
 11
361.692571
 21
309.762399
 31
0.0
 11
362.230564
 21
309.224406
 31
0.0
 11
362.987439
 21
309.019661
 31
0.0
 11
363.744314
 21
309.224406
 31
0.0
 11
364.282306
 21
309.762399
 31
0.0
 11
364.487052
 21
310.519274
 31
0.0
 11
364.282306
 21
311.276149
 31
0.0
 11
363.744314
 21
311.814142
 31
0.0
 11
362.987439
 21
312.018887
 31
0.0
 11
362.230564
 21
311.814142
 31
0.0
 11
361.692571
 21
311.276149
 31
0.0
 11
361.487825
 21
310.519274
 31
0.0
  0
SPLINE
  5
105
100
AcDbEntity
  8
Barrier_Drawing_200mm_v2
 62
7
100
AcDbSpline
 70
0
 71
3
 72
19
 73
15
 74
13
 40
0.000000
 40
0.000000
 40
0.000000
 40
0.000000
 40
0.784079
 40
1.544916
 40
2.328995
 40
3.113075
 40
3.873912
 40
4.657991
 40
5.442070
 40
6.202907
 40
6.986986
 40
7.771066
 40
8.531902
 40
9.315982
 40
9.315982
 40
9.315982
 40
9.315982
 10
378.976052
 20
310.519274
 30
0.0
 10
379.017271
 20
310.254920
 30
0.0
 10
379.098487
 20
309.734048
 30
0.0
 10
379.695505
 20
309.160614
 30
0.0
 10
380.474288
 20
308.948124
 30
0.0
 10
381.261249
 20
309.160614
 30
0.0
 10
381.834221
 20
309.734048
 30
0.0
 10
382.046868
 20
310.519274
 30
0.0
 10
381.834221
 20
311.304500
 30
0.0
 10
381.261249
 20
311.877934
 30
0.0
 10
380.474288
 20
312.090424
 30
0.0
 10
379.695505
 20
311.877934
 30
0.0
 10
379.098487
 20
311.304500
 30
0.0
 10
379.017271
 20
310.783628
 30
0.0
 10
378.976052
 20
310.519274
 30
0.0
 11
378.976052
 21
310.519274
 31
0.0
 11
379.180797
 21
309.762399
 31
0.0
 11
379.718790
 21
309.224406
 31
0.0
 11
380.475665
 21
309.019661
 31
0.0
 11
381.232540
 21
309.224406
 31
0.0
 11
381.770533
 21
309.762399
 31
0.0
 11
381.975278
 21
310.519274
 31
0.0
 11
381.770533
 21
311.276149
 31
0.0
 11
381.232540
 21
311.814142
 31
0.0
 11
380.475665
 21
312.018887
 31
0.0
 11
379.718790
 21
311.814142
 31
0.0
 11
379.180797
 21
311.276149
 31
0.0
 11
378.976052
 21
310.519274
 31
0.0
  0
SPLINE
  5
106
100
AcDbEntity
  8
Barrier_Drawing_200mm_v2
 62
7
100
AcDbSpline
 70
0
 71
3
 72
19
 73
15
 74
13
 40
0.000000
 40
0.000000
 40
0.000000
 40
0.000000
 40
0.784079
 40
1.544916
 40
2.328995
 40
3.113075
 40
3.873912
 40
4.657991
 40
5.442070
 40
6.202907
 40
6.986986
 40
7.771066
 40
8.531902
 40
9.315982
 40
9.315982
 40
9.315982
 40
9.315982
 10
396.464278
 20
310.519274
 30
0.0
 10
396.505497
 20
310.254920
 30
0.0
 10
396.586713
 20
309.734048
 30
0.0
 10
397.183731
 20
309.160614
 30
0.0
 10
397.962515
 20
308.948124
 30
0.0
 10
398.749475
 20
309.160614
 30
0.0
 10
399.322447
 20
309.734048
 30
0.0
 10
399.535094
 20
310.519274
 30
0.0
 10
399.322447
 20
311.304500
 30
0.0
 10
398.749475
 20
311.877934
 30
0.0
 10
397.962515
 20
312.090424
 30
0.0
 10
397.183731
 20
311.877934
 30
0.0
 10
396.586713
 20
311.304500
 30
0.0
 10
396.505497
 20
310.783628
 30
0.0
 10
396.464278
 20
310.519274
 30
0.0
 11
396.464278
 21
310.519274
 31
0.0
 11
396.669023
 21
309.762399
 31
0.0
 11
397.207016
 21
309.224406
 31
0.0
 11
397.963891
 21
309.019661
 31
0.0
 11
398.720766
 21
309.224406
 31
0.0
 11
399.258759
 21
309.762399
 31
0.0
 11
399.463504
 21
310.519274
 31
0.0
 11
399.258759
 21
311.276149
 31
0.0
 11
398.720766
 21
311.814142
 31
0.0
 11
397.963891
 21
312.018887
 31
0.0
 11
397.207016
 21
311.814142
 31
0.0
 11
396.669023
 21
311.276149
 31
0.0
 11
396.464278
 21
310.519274
 31
0.0
  0
SPLINE
  5
107
100
AcDbEntity
  8
Barrier_Drawing_200mm_v2
 62
7
100
AcDbSpline
 70
0
 71
3
 72
19
 73
15
 74
13
 40
0.000000
 40
0.000000
 40
0.000000
 40
0.000000
 40
0.784079
 40
1.544916
 40
2.328995
 40
3.113075
 40
3.873912
 40
4.657991
 40
5.442070
 40
6.202907
 40
6.986986
 40
7.771066
 40
8.531902
 40
9.315982
 40
9.315982
 40
9.315982
 40
9.315982
 10
413.952504
 20
310.519274
 30
0.0
 10
413.993723
 20
310.254920
 30
0.0
 10
414.074940
 20
309.734048
 30
0.0
 10
414.671958
 20
309.160614
 30
0.0
 10
415.450741
 20
308.948124
 30
0.0
 10
416.237702
 20
309.160614
 30
0.0
 10
416.810674
 20
309.734048
 30
0.0
 10
417.023321
 20
310.519274
 30
0.0
 10
416.810674
 20
311.304500
 30
0.0
 10
416.237702
 20
311.877934
 30
0.0
 10
415.450741
 20
312.090424
 30
0.0
 10
414.671958
 20
311.877934
 30
0.0
 10
414.074940
 20
311.304500
 30
0.0
 10
413.993723
 20
310.783628
 30
0.0
 10
413.952504
 20
310.519274
 30
0.0
 11
413.952504
 21
310.519274
 31
0.0
 11
414.157250
 21
309.762399
 31
0.0
 11
414.695243
 21
309.224406
 31
0.0
 11
415.452118
 21
309.019661
 31
0.0
 11
416.208993
 21
309.224406
 31
0.0
 11
416.746985
 21
309.762399
 31
0.0
 11
416.951731
 21
310.519274
 31
0.0
 11
416.746985
 21
311.276149
 31
0.0
 11
416.208993
 21
311.814142
 31
0.0
 11
415.452118
 21
312.018887
 31
0.0
 11
414.695243
 21
311.814142
 31
0.0
 11
414.157250
 21
311.276149
 31
0.0
 11
413.952504
 21
310.519274
 31
0.0
  0
SPLINE
  5
108
100
AcDbEntity
  8
Barrier_Drawing_200mm_v2
 62
7
100
AcDbSpline
 70
0
 71
3
 72
19
 73
15
 74
13
 40
0.000000
 40
0.000000
 40
0.000000
 40
0.000000
 40
0.784079
 40
1.544916
 40
2.328995
 40
3.113075
 40
3.873912
 40
4.657991
 40
5.442070
 40
6.202907
 40
6.986986
 40
7.771066
 40
8.531902
 40
9.315982
 40
9.315982
 40
9.315982
 40
9.315982
 10
448.927214
 20
310.519274
 30
0.0
 10
448.968433
 20
310.254920
 30
0.0
 10
449.049650
 20
309.734048
 30
0.0
 10
449.646668
 20
309.160614
 30
0.0
 10
450.425451
 20
308.948124
 30
0.0
 10
451.212412
 20
309.160614
 30
0.0
 10
451.785384
 20
309.734048
 30
0.0
 10
451.998031
 20
310.519274
 30
0.0
 10
451.785384
 20
311.304500
 30
0.0
 10
451.212412
 20
311.877934
 30
0.0
 10
450.425451
 20
312.090424
 30
0.0
 10
449.646668
 20
311.877934
 30
0.0
 10
449.049650
 20
311.304500
 30
0.0
 10
448.968433
 20
310.783628
 30
0.0
 10
448.927214
 20
310.519274
 30
0.0
 11
448.927214
 21
310.519274
 31
0.0
 11
449.131960
 21
309.762399
 31
0.0
 11
449.669953
 21
309.224406
 31
0.0
 11
450.426828
 21
309.019661
 31
0.0
 11
451.183703
 21
309.224406
 31
0.0
 11
451.721695
 21
309.762399
 31
0.0
 11
451.926441
 21
310.519274
 31
0.0
 11
451.721695
 21
311.276149
 31
0.0
 11
451.183703
 21
311.814142
 31
0.0
 11
450.426828
 21
312.018887
 31
0.0
 11
449.669953
 21
311.814142
 31
0.0
 11
449.131960
 21
311.276149
 31
0.0
 11
448.927214
 21
310.519274
 31
0.0
  0
SPLINE
  5
109
100
AcDbEntity
  8
Barrier_Drawing_200mm_v2
 62
7
100
AcDbSpline
 70
0
 71
3
 72
19
 73
15
 74
13
 40
0.000000
 40
0.000000
 40
0.000000
 40
0.000000
 40
0.784077
 40
1.544909
 40
2.329003
 40
3.113097
 40
3.873928
 40
4.658006
 40
5.442083
 40
6.202914
 40
6.987009
 40
7.771103
 40
8.531934
 40
9.316012
 40
9.316012
 40
9.316012
 40
9.316012
 10
466.415441
 20
310.519274
 30
0.0
 10
466.456657
 20
310.254920
 30
0.0
 10
466.537867
 20
309.734050
 30
0.0
 10
467.134883
 20
309.160607
 30
0.0
 10
467.913678
 20
308.948127
 30
0.0
 10
468.700648
 20
309.160607
 30
0.0
 10
469.273620
 20
309.734050
 30
0.0
 10
469.486252
 20
310.519274
 30
0.0
 10
469.273620
 20
311.304498
 30
0.0
 10
468.700648
 20
311.877941
 30
0.0
 10
467.913678
 20
312.090421
 30
0.0
 10
467.134883
 20
311.877941
 30
0.0
 10
466.537867
 20
311.304498
 30
0.0
 10
466.456657
 20
310.783628
 30
0.0
 10
466.415441
 20
310.519274
 30
0.0
 11
466.415441
 21
310.519274
 31
0.0
 11
466.620178
 21
309.762399
 31
0.0
 11
467.158163
 21
309.224406
 31
0.0
 11
467.915054
 21
309.019661
 31
0.0
 11
468.671944
 21
309.224406
 31
0.0
 11
469.209929
 21
309.762399
 31
0.0
 11
469.414667
 21
310.519274
 31
0.0
 11
469.209929
 21
311.276149
 31
0.0
 11
468.671944
 21
311.814142
 31
0.0
 11
467.915054
 21
312.018887
 31
0.0
 11
467.158163
 21
311.814142
 31
0.0
 11
466.620178
 21
311.276149
 31
0.0
 11
466.415441
 21
310.519274
 31
0.0
  0
SPLINE
  5
10a
100
AcDbEntity
  8
Barrier_Drawing_200mm_v2
 62
7
100
AcDbSpline
 70
0
 71
3
 72
19
 73
15
 74
13
 40
0.000000
 40
0.000000
 40
0.000000
 40
0.000000
 40
0.784077
 40
1.544909
 40
2.329003
 40
3.113097
 40
3.873928
 40
4.658006
 40
5.442083
 40
6.202914
 40
6.987009
 40
7.771103
 40
8.531934
 40
9.316012
 40
9.316012
 40
9.316012
 40
9.316012
 10
483.903667
 20
310.519274
 30
0.0
 10
483.944883
 20
310.254920
 30
0.0
 10
484.026094
 20
309.734050
 30
0.0
 10
484.623110
 20
309.160607
 30
0.0
 10
485.401904
 20
308.948127
 30
0.0
 10
486.188875
 20
309.160607
 30
0.0
 10
486.761846
 20
309.734050
 30
0.0
 10
486.974478
 20
310.519274
 30
0.0
 10
486.761846
 20
311.304498
 30
0.0
 10
486.188875
 20
311.877941
 30
0.0
 10
485.401904
 20
312.090421
 30
0.0
 10
484.623110
 20
311.877941
 30
0.0
 10
484.026094
 20
311.304498
 30
0.0
 10
483.944883
 20
310.783628
 30
0.0
 10
483.903667
 20
310.519274
 30
0.0
 11
483.903667
 21
310.519274
 31
0.0
 11
484.108405
 21
309.762399
 31
0.0
 11
484.646390
 21
309.224406
 31
0.0
 11
485.403280
 21
309.019661
 31
0.0
 11
486.160171
 21
309.224406
 31
0.0
 11
486.698156
 21
309.762399
 31
0.0
 11
486.902894
 21
310.519274
 31
0.0
 11
486.698156
 21
311.276149
 31
0.0
 11
486.160171
 21
311.814142
 31
0.0
 11
485.403280
 21
312.018887
 31
0.0
 11
484.646390
 21
311.814142
 31
0.0
 11
484.108405
 21
311.276149
 31
0.0
 11
483.903667
 21
310.519274
 31
0.0
  0
SPLINE
  5
10b
100
AcDbEntity
  8
Barrier_Drawing_200mm_v2
 62
7
100
AcDbSpline
 70
0
 71
3
 72
19
 73
15
 74
13
 40
0.000000
 40
0.000000
 40
0.000000
 40
0.000000
 40
0.784077
 40
1.544909
 40
2.329003
 40
3.113097
 40
3.873928
 40
4.658006
 40
5.442083
 40
6.202914
 40
6.987009
 40
7.771103
 40
8.531934
 40
9.316012
 40
9.316012
 40
9.316012
 40
9.316012
 10
501.391893
 20
310.519274
 30
0.0
 10
501.433110
 20
310.254920
 30
0.0
 10
501.514320
 20
309.734050
 30
0.0
 10
502.111336
 20
309.160607
 30
0.0
 10
502.890130
 20
308.948127
 30
0.0
 10
503.677101
 20
309.160607
 30
0.0
 10
504.250072
 20
309.734050
 30
0.0
 10
504.462705
 20
310.519274
 30
0.0
 10
504.250072
 20
311.304498
 30
0.0
 10
503.677101
 20
311.877941
 30
0.0
 10
502.890130
 20
312.090421
 30
0.0
 10
502.111336
 20
311.877941
 30
0.0
 10
501.514320
 20
311.304498
 30
0.0
 10
501.433110
 20
310.783628
 30
0.0
 10
501.391893
 20
310.519274
 30
0.0
 11
501.391893
 21
310.519274
 31
0.0
 11
501.596631
 21
309.762399
 31
0.0
 11
502.134616
 21
309.224406
 31
0.0
 11
502.891507
 21
309.019661
 31
0.0
 11
503.648397
 21
309.224406
 31
0.0
 11
504.186382
 21
309.762399
 31
0.0
 11
504.391120
 21
310.519274
 31
0.0
 11
504.186382
 21
311.276149
 31
0.0
 11
503.648397
 21
311.814142
 31
0.0
 11
502.891507
 21
312.018887
 31
0.0
 11
502.134616
 21
311.814142
 31
0.0
 11
501.596631
 21
311.276149
 31
0.0
 11
501.391893
 21
310.519274
 31
0.0
  0
SPLINE
  5
10c
100
AcDbEntity
  8
Barrier_Drawing_200mm_v2
 62
7
100
AcDbSpline
 70
0
 71
3
 72
19
 73
15
 74
13
 40
0.000000
 40
0.000000
 40
0.000000
 40
0.000000
 40
0.784077
 40
1.544909
 40
2.329003
 40
3.113097
 40
3.873928
 40
4.658006
 40
5.442083
 40
6.202914
 40
6.987009
 40
7.771103
 40
8.531934
 40
9.316012
 40
9.316012
 40
9.316012
 40
9.316012
 10
526.375572
 20
313.518501
 30
0.0
 10
526.416788
 20
313.254147
 30
0.0
 10
526.497999
 20
312.733277
 30
0.0
 10
527.095014
 20
312.159833
 30
0.0
 10
527.873809
 20
311.947353
 30
0.0
 10
528.660780
 20
312.159833
 30
0.0
 10
529.233751
 20
312.733277
 30
0.0
 10
529.446383
 20
313.518501
 30
0.0
 10
529.233751
 20
314.303724
 30
0.0
 10
528.660780
 20
314.877168
 30
0.0
 10
527.873809
 20
315.089648
 30
0.0
 10
527.095014
 20
314.877168
 30
0.0
 10
526.497999
 20
314.303724
 30
0.0
 10
526.416788
 20
313.782854
 30
0.0
 10
526.375572
 20
313.518501
 30
0.0
 11
526.375572
 21
313.518501
 31
0.0
 11
526.580310
 21
312.761626
 31
0.0
 11
527.118295
 21
312.223633
 31
0.0
 11
527.875185
 21
312.018887
 31
0.0
 11
528.632076
 21
312.223633
 31
0.0
 11
529.170061
 21
312.761626
 31
0.0
 11
529.374798
 21
313.518501
 31
0.0
 11
529.170061
 21
314.275375
 31
0.0
 11
528.632076
 21
314.813368
 31
0.0
 11
527.875185
 21
315.018114
 31
0.0
 11
527.118295
 21
314.813368
 31
0.0
 11
526.580310
 21
314.275375
 31
0.0
 11
526.375572
 21
313.518501
 31
0.0
  0
SPLINE
  5
10d
100
AcDbEntity
  8
Barrier_Drawing_200mm_v2
 62
7
100
AcDbSpline
 70
0
 71
3
 72
19
 73
15
 74
13
 40
0.000000
 40
0.000000
 40
0.000000
 40
0.000000
 40
0.784079
 40
1.544916
 40
2.328995
 40
3.113075
 40
3.873912
 40
4.657991
 40
5.442070
 40
6.202907
 40
6.986986
 40
7.771066
 40
8.531902
 40
9.315982
 40
9.315982
 40
9.315982
 40
9.315982
 10
336.504147
 20
313.518501
 30
0.0
 10
336.545366
 20
313.254146
 30
0.0
 10
336.626582
 20
312.733275
 30
0.0
 10
337.223600
 20
312.159840
 30
0.0
 10
338.002384
 20
311.947350
 30
0.0
 10
338.789344
 20
312.159840
 30
0.0
 10
339.362316
 20
312.733275
 30
0.0
 10
339.574963
 20
313.518501
 30
0.0
 10
339.362316
 20
314.303726
 30
0.0
 10
338.789344
 20
314.877161
 30
0.0
 10
338.002384
 20
315.089651
 30
0.0
 10
337.223600
 20
314.877161
 30
0.0
 10
336.626582
 20
314.303726
 30
0.0
 10
336.545366
 20
313.782855
 30
0.0
 10
336.504147
 20
313.518501
 30
0.0
 11
336.504147
 21
313.518501
 31
0.0
 11
336.708892
 21
312.761626
 31
0.0
 11
337.246885
 21
312.223633
 31
0.0
 11
338.003760
 21
312.018887
 31
0.0
 11
338.760635
 21
312.223633
 31
0.0
 11
339.298628
 21
312.761626
 31
0.0
 11
339.503373
 21
313.518501
 31
0.0
 11
339.298628
 21
314.275375
 31
0.0
 11
338.760635
 21
314.813368
 31
0.0
 11
338.003760
 21
315.018114
 31
0.0
 11
337.246885
 21
314.813368
 31
0.0
 11
336.708892
 21
314.275375
 31
0.0
 11
336.504147
 21
313.518501
 31
0.0
  0
SPLINE
  5
10e
100
AcDbEntity
  8
Barrier_Drawing_200mm_v2
 62
7
100
AcDbSpline
 70
0
 71
3
 72
19
 73
15
 74
13
 40
0.000000
 40
0.000000
 40
0.000000
 40
0.000000
 40
0.784077
 40
1.544909
 40
2.329003
 40
3.113097
 40
3.873928
 40
4.658006
 40
5.442083
 40
6.202914
 40
6.987009
 40
7.771103
 40
8.531934
 40
9.316012
 40
9.316012
 40
9.316012
 40
9.316012
 10
526.375572
 20
337.501856
 30
0.0
 10
526.416788
 20
337.237502
 30
0.0
 10
526.497999
 20
336.716632
 30
0.0
 10
527.095014
 20
336.143189
 30
0.0
 10
527.873809
 20
335.930709
 30
0.0
 10
528.660780
 20
336.143189
 30
0.0
 10
529.233751
 20
336.716632
 30
0.0
 10
529.446383
 20
337.501856
 30
0.0
 10
529.233751
 20
338.287079
 30
0.0
 10
528.660780
 20
338.860523
 30
0.0
 10
527.873809
 20
339.073003
 30
0.0
 10
527.095014
 20
338.860523
 30
0.0
 10
526.497999
 20
338.287079
 30
0.0
 10
526.416788
 20
337.766210
 30
0.0
 10
526.375572
 20
337.501856
 30
0.0
 11
526.375572
 21
337.501856
 31
0.0
 11
526.580310
 21
336.744981
 31
0.0
 11
527.118295
 21
336.206988
 31
0.0
 11
527.875185
 21
336.002243
 31
0.0
 11
528.632076
 21
336.206988
 31
0.0
 11
529.170061
 21
336.744981
 31
0.0
 11
529.374798
 21
337.501856
 31
0.0
 11
529.170061
 21
338.258731
 31
0.0
 11
528.632076
 21
338.796724
 31
0.0
 11
527.875185
 21
339.001469
 31
0.0
 11
527.118295
 21
338.796724
 31
0.0
 11
526.580310
 21
338.258731
 31
0.0
 11
526.375572
 21
337.501856
 31
0.0
  0
SPLINE
  5
10f
100
AcDbEntity
  8
Barrier_Drawing_200mm_v2
 62
7
100
AcDbSpline
 70
0
 71
3
 72
19
 73
15
 74
13
 40
0.000000
 40
0.000000
 40
0.000000
 40
0.000000
 40
0.784079
 40
1.544916
 40
2.328995
 40
3.113075
 40
3.873912
 40
4.657991
 40
5.442070
 40
6.202907
 40
6.986986
 40
7.771066
 40
8.531902
 40
9.315982
 40
9.315982
 40
9.315982
 40
9.315982
 10
336.504147
 20
337.501856
 30
0.0
 10
336.545366
 20
337.237502
 30
0.0
 10
336.626582
 20
336.716630
 30
0.0
 10
337.223600
 20
336.143196
 30
0.0
 10
338.002384
 20
335.930706
 30
0.0
 10
338.789344
 20
336.143196
 30
0.0
 10
339.362316
 20
336.716630
 30
0.0
 10
339.574963
 20
337.501856
 30
0.0
 10
339.362316
 20
338.287082
 30
0.0
 10
338.789344
 20
338.860516
 30
0.0
 10
338.002384
 20
339.073006
 30
0.0
 10
337.223600
 20
338.860516
 30
0.0
 10
336.626582
 20
338.287082
 30
0.0
 10
336.545366
 20
337.766210
 30
0.0
 10
336.504147
 20
337.501856
 30
0.0
 11
336.504147
 21
337.501856
 31
0.0
 11
336.708892
 21
336.744981
 31
0.0
 11
337.246885
 21
336.206988
 31
0.0
 11
338.003760
 21
336.002243
 31
0.0
 11
338.760635
 21
336.206988
 31
0.0
 11
339.298628
 21
336.744981
 31
0.0
 11
339.503373
 21
337.501856
 31
0.0
 11
339.298628
 21
338.258731
 31
0.0
 11
338.760635
 21
338.796724
 31
0.0
 11
338.003760
 21
339.001469
 31
0.0
 11
337.246885
 21
338.796724
 31
0.0
 11
336.708892
 21
338.258731
 31
0.0
 11
336.504147
 21
337.501856
 31
0.0
  0
SPLINE
  5
110
100
AcDbEntity
  8
Barrier_Drawing_200mm_v2
 62
7
100
AcDbSpline
 70
0
 71
3
 72
19
 73
15
 74
13
 40
0.000000
 40
0.000000
 40
0.000000
 40
0.000000
 40
0.784079
 40
1.544916
 40
2.328995
 40
3.113075
 40
3.873912
 40
4.657991
 40
5.442070
 40
6.202907
 40
6.986986
 40
7.771066
 40
8.531902
 40
9.315982
 40
9.315982
 40
9.315982
 40
9.315982
 10
431.438988
 20
310.519274
 30
0.0
 10
431.480207
 20
310.254920
 30
0.0
 10
431.561423
 20
309.734048
 30
0.0
 10
432.158441
 20
309.160614
 30
0.0
 10
432.937225
 20
308.948124
 30
0.0
 10
433.724185
 20
309.160614
 30
0.0
 10
434.297157
 20
309.734048
 30
0.0
 10
434.509804
 20
310.519274
 30
0.0
 10
434.297157
 20
311.304500
 30
0.0
 10
433.724185
 20
311.877934
 30
0.0
 10
432.937225
 20
312.090424
 30
0.0
 10
432.158441
 20
311.877934
 30
0.0
 10
431.561423
 20
311.304500
 30
0.0
 10
431.480207
 20
310.783628
 30
0.0
 10
431.438988
 20
310.519274
 30
0.0
 11
431.438988
 21
310.519274
 31
0.0
 11
431.643733
 21
309.762399
 31
0.0
 11
432.181726
 21
309.224406
 31
0.0
 11
432.938601
 21
309.019661
 31
0.0
 11
433.695476
 21
309.224406
 31
0.0
 11
434.233469
 21
309.762399
 31
0.0
 11
434.438214
 21
310.519274
 31
0.0
 11
434.233469
 21
311.276149
 31
0.0
 11
433.695476
 21
311.814142
 31
0.0
 11
432.938601
 21
312.018887
 31
0.0
 11
432.181726
 21
311.814142
 31
0.0
 11
431.643733
 21
311.276149
 31
0.0
 11
431.438988
 21
310.519274
 31
0.0
  0
ENDSEC
  0
SECTION
  2
OBJECTS
  0
DICTIONARY
  5
C
330
0
100
AcDbDictionary
  3
ACAD_GROUP
350
D
  3
ACAD_MLINESTYLE
350
17
  0
DICTIONARY
  5
D
330
C
100
AcDbDictionary
  0
DICTIONARY
  5
1A
330
C
100
AcDbDictionary
  0
DICTIONARY
  5
17
330
C
100
AcDbDictionary
  3
STANDARD
350
18
  0
DICTIONARY
  5
19
330
C
100
AcDbDictionary
  0
ENDSEC
  0
EOF
