  0
SECTION
  2
HEADER
  9
$ACADVER
  1
AC1014
  9
$HANDSEED
  5
FFFF
  9
$MEASUREMENT
 70
     1
  0
ENDSEC
  0
SECTION
  2
TABLES
  0
TABLE
  2
VPORT
  5
8
330
0
100
AcDbSymbolTable
 70
     4
  0
VPORT
  5
2E
330
8
100
AcDbSymbolTableRecord
100
AcDbViewportTableRecord
  2
*ACTIVE
 70
     0
 10
0.0
 20
0.0
 11
1.0
 21
1.0
 12
210.0
 22
148.5
 13
0.0
 23
0.0
 14
10.0
 24
10.0
 15
10.0
 25
10.0
 16
0.0
 26
0.0
 36
1.0
 17
0.0
 27
0.0
 37
0.0
 40
341.0
 41
1.24
 42
50.0
 43
0.0
 44
0.0
 50
0.0
 51
0.0
 71
     0
 72
   100
 73
     1
 74
     3
 75
     0
 76
     0
 77
     0
 78
     0
  0
ENDTAB
  0
TABLE
  2
LTYPE
  5
5
330
0
100
AcDbSymbolTable
 70
     1
  0
LTYPE
  5
14
330
5
100
AcDbSymbolTableRecord
100
AcDbLinetypeTableRecord
  2
BYBLOCK
 70
     0
  3

 72
    65
 73
     0
 40
0.0
  0
LTYPE
  5
15
330
5
100
AcDbSymbolTableRecord
100
AcDbLinetypeTableRecord
  2
BYLAYER
 70
     0
  3

 72
    65
 73
     0
 40
0.0
  0
LTYPE
  5
16
330
5
100
AcDbSymbolTableRecord
100
AcDbLinetypeTableRecord
  2
CONTINUOUS
 70
     0
  3
Solid line
 72
    65
 73
     0
 40
0.0
  0
ENDTAB
  0
TABLE
  2
LAYER
  5
2
100
AcDbSymbolTable
 70
2
  0
LAYER
  5
50
100
AcDbSymbolTableRecord
100
AcDbLayerTableRecord
  2
0
 70
0
  6
CONTINUOUS
  0
LAYER
  5
51
100
AcDbSymbolTableRecord
100
AcDbLayerTableRecord
  2
Layer_1
 70
0
  6
CONTINUOUS
  0
ENDTAB
  0
TABLE
  2
STYLE
  5
3
330
0
100
AcDbSymbolTable
 70
     1
  0
STYLE
  5
11
330
3
100
AcDbSymbolTableRecord
100
AcDbTextStyleTableRecord
  2
STANDARD
 70
     0
 40
0.0
 41
1.0
 50
0.0
 71
     0
 42
2.5
  3
txt
  4

  0
ENDTAB
  0
TABLE
  2
VIEW
  5
6
330
0
100
AcDbSymbolTable
 70
     0
  0
ENDTAB
  0
TABLE
  2
UCS
  5
7
330
0
100
AcDbSymbolTable
 70
     0
  0
ENDTAB
  0
TABLE
  2
APPID
  5
9
330
0
100
AcDbSymbolTable
 70
     2
  0
APPID
  5
12
330
9
100
AcDbSymbolTableRecord
100
AcDbRegAppTableRecord
  2
ACAD
 70
     0
  0
ENDTAB
  0
TABLE
  2
DIMSTYLE
  5
A
330
0
100
AcDbSymbolTable
 70
     1
  0
DIMSTYLE
105
27
330
A
100
AcDbSymbolTableRecord
100
AcDbDimStyleTableRecord
  2
ISO-25
 70
     0
  3

  4

  5

  6

  7

 40
1.0
 41
2.5
 42
0.625
 43
3.75
 44
1.25
 45
0.0
 46
0.0
 47
0.0
 48
0.0
140
2.5
141
2.5
142
0.0
143
0.03937007874016
144
1.0
145
0.0
146
1.0
147
0.625
 71
     0
 72
     0
 73
     0
 74
     0
 75
     0
 76
     0
 77
     1
 78
     8
170
     0
171
     3
172
     1
173
     0
174
     0
175
     0
176
     0
177
     0
178
     0
270
     2
271
     2
272
     2
273
     2
274
     3
340
11
275
     0
280
     0
281
     0
282
     0
283
     0
284
     8
285
     0
286
     0
287
     3
288
     0
  0
ENDTAB
  0
TABLE
  2
BLOCK_RECORD
  5
1
330
0
100
AcDbSymbolTable
 70
     1
  0
BLOCK_RECORD
  5
1F
330
1
100
AcDbSymbolTableRecord
100
AcDbBlockTableRecord
  2
*MODEL_SPACE
  0
BLOCK_RECORD
  5
1B
330
1
100
AcDbSymbolTableRecord
100
AcDbBlockTableRecord
  2
*PAPER_SPACE
  0
ENDTAB
  0
ENDSEC
  0
SECTION
  2
BLOCKS
  0
BLOCK
  5
20
330
1F
100
AcDbEntity
  8
0
100
AcDbBlockBegin
  2
*MODEL_SPACE
 70
     0
 10
0.0
 20
0.0
 30
0.0
  3
*MODEL_SPACE
  1

  0
ENDBLK
  5
21
330
1F
100
AcDbEntity
  8
0
100
AcDbBlockEnd
  0
BLOCK
  5
1C
330
1B
100
AcDbEntity
 67
     1
  8
0
100
AcDbBlockBegin
  2
*PAPER_SPACE
  1

  0
ENDBLK
  5
1D
330
1B
100
AcDbEntity
 67
     1
  8
0
100
AcDbBlockEnd
  0
ENDSEC
  0
SECTION
  2
ENTITIES
  0
LINE
  5
100
100
AcDbEntity
  8
Layer_1
 62
7
100
AcDbLine
 10
-157.321427
 20
180.273070
 30
0.0
 11
-157.321427
 21
140.247163
 31
0.0
  0
LINE
  5
101
100
AcDbEntity
  8
Layer_1
 62
7
100
AcDbLine
 10
-157.321427
 20
140.247163
 30
0.0
 11
443.074998
 21
140.247163
 31
0.0
  0
LINE
  5
102
100
AcDbEntity
  8
Layer_1
 62
7
100
AcDbLine
 10
443.074998
 20
140.247163
 30
0.0
 11
443.074998
 21
180.273070
 31
0.0
  0
LINE
  5
103
100
AcDbEntity
  8
Layer_1
 62
7
100
AcDbLine
 10
443.074998
 20
180.273070
 30
0.0
 11
-157.321427
 21
180.273070
 31
0.0
  0
SPLINE
  5
104
100
AcDbEntity
  8
Layer_1
 62
7
100
AcDbSpline
 70
0
 71
3
 72
19
 73
15
 74
13
 40
0.000000
 40
0.000000
 40
0.000000
 40
0.000000
 40
0.785314
 40
1.547324
 40
2.332638
 40
3.117953
 40
3.879963
 40
4.665277
 40
5.450591
 40
6.212601
 40
6.997915
 40
7.783230
 40
8.545240
 40
9.330554
 40
9.330554
 40
9.330554
 40
9.330554
 10
436.570788
 20
148.253322
 30
0.0
 10
436.612067
 20
147.988550
 30
0.0
 10
436.693399
 20
147.466864
 30
0.0
 10
437.291353
 20
146.892528
 30
0.0
 10
438.071359
 20
146.679733
 30
0.0
 10
438.859553
 20
146.892528
 30
0.0
 10
439.433427
 20
147.466864
 30
0.0
 10
439.646379
 20
148.253322
 30
0.0
 10
439.433427
 20
149.039779
 30
0.0
 10
438.859553
 20
149.614116
 30
0.0
 10
438.071359
 20
149.826911
 30
0.0
 10
437.291353
 20
149.614116
 30
0.0
 10
436.693399
 20
149.039779
 30
0.0
 10
436.612067
 20
148.518093
 30
0.0
 10
436.570788
 20
148.253322
 30
0.0
 11
436.570788
 21
148.253322
 31
0.0
 11
436.775844
 21
147.495251
 31
0.0
 11
437.314667
 21
146.956429
 31
0.0
 11
438.072737
 21
146.751373
 31
0.0
 11
438.830807
 21
146.956429
 31
0.0
 11
439.369630
 21
147.495251
 31
0.0
 11
439.574686
 21
148.253322
 31
0.0
 11
439.369630
 21
149.011392
 31
0.0
 11
438.830807
 21
149.550214
 31
0.0
 11
438.072737
 21
149.755270
 31
0.0
 11
437.314667
 21
149.550214
 31
0.0
 11
436.775844
 21
149.011392
 31
0.0
 11
436.570788
 21
148.253322
 31
0.0
  0
SPLINE
  5
105
100
AcDbEntity
  8
Layer_1
 62
7
100
AcDbSpline
 70
0
 71
3
 72
19
 73
15
 74
13
 40
0.000000
 40
0.000000
 40
0.000000
 40
0.000000
 40
0.785314
 40
1.547324
 40
2.332638
 40
3.117953
 40
3.879963
 40
4.665277
 40
5.450591
 40
6.212601
 40
6.997915
 40
7.783230
 40
8.545240
 40
9.330554
 40
9.330554
 40
9.330554
 40
9.330554
 10
436.570788
 20
172.268866
 30
0.0
 10
436.612067
 20
172.004094
 30
0.0
 10
436.693399
 20
171.482408
 30
0.0
 10
437.291353
 20
170.908072
 30
0.0
 10
438.071359
 20
170.695277
 30
0.0
 10
438.859553
 20
170.908072
 30
0.0
 10
439.433427
 20
171.482408
 30
0.0
 10
439.646379
 20
172.268866
 30
0.0
 10
439.433427
 20
173.055324
 30
0.0
 10
438.859553
 20
173.629660
 30
0.0
 10
438.071359
 20
173.842455
 30
0.0
 10
437.291353
 20
173.629660
 30
0.0
 10
436.693399
 20
173.055324
 30
0.0
 10
436.612067
 20
172.533638
 30
0.0
 10
436.570788
 20
172.268866
 30
0.0
 11
436.570788
 21
172.268866
 31
0.0
 11
436.775844
 21
171.510796
 31
0.0
 11
437.314667
 21
170.971973
 31
0.0
 11
438.072737
 21
170.766917
 31
0.0
 11
438.830807
 21
170.971973
 31
0.0
 11
439.369630
 21
171.510796
 31
0.0
 11
439.574686
 21
172.268866
 31
0.0
 11
439.369630
 21
173.026936
 31
0.0
 11
438.830807
 21
173.565759
 31
0.0
 11
438.072737
 21
173.770815
 31
0.0
 11
437.314667
 21
173.565759
 31
0.0
 11
436.775844
 21
173.026936
 31
0.0
 11
436.570788
 21
172.268866
 31
0.0
  0
SPLINE
  5
106
100
AcDbEntity
  8
Layer_1
 62
7
100
AcDbSpline
 70
0
 71
3
 72
19
 73
15
 74
13
 40
0.000000
 40
0.000000
 40
0.000000
 40
0.000000
 40
0.785315
 40
1.547328
 40
2.332634
 40
3.117940
 40
3.879953
 40
4.665269
 40
5.450584
 40
6.212597
 40
6.997903
 40
7.783209
 40
8.545222
 40
9.330537
 40
9.330537
 40
9.330537
 40
9.330537
 10
-153.819160
 20
172.268866
 30
0.0
 10
-153.777880
 20
172.004094
 30
0.0
 10
-153.696545
 20
171.482407
 30
0.0
 10
-153.098590
 20
170.908076
 30
0.0
 10
-152.318590
 20
170.695276
 30
0.0
 10
-151.530402
 20
170.908076
 30
0.0
 10
-150.956528
 20
171.482407
 30
0.0
 10
-150.743567
 20
172.268866
 30
0.0
 10
-150.956528
 20
173.055325
 30
0.0
 10
-151.530402
 20
173.629656
 30
0.0
 10
-152.318590
 20
173.842456
 30
0.0
 10
-153.098590
 20
173.629656
 30
0.0
 10
-153.696545
 20
173.055325
 30
0.0
 10
-153.777880
 20
172.533638
 30
0.0
 10
-153.819160
 20
172.268866
 30
0.0
 11
-153.819160
 21
172.268866
 31
0.0
 11
-153.614100
 21
171.510796
 31
0.0
 11
-153.075273
 21
170.971973
 31
0.0
 11
-152.317212
 21
170.766917
 31
0.0
 11
-151.559150
 21
170.971973
 31
0.0
 11
-151.020323
 21
171.510796
 31
0.0
 11
-150.815263
 21
172.268866
 31
0.0
 11
-151.020323
 21
173.026936
 31
0.0
 11
-151.559150
 21
173.565759
 31
0.0
 11
-152.317212
 21
173.770815
 31
0.0
 11
-153.075273
 21
173.565759
 31
0.0
 11
-153.614100
 21
173.026936
 31
0.0
 11
-153.819160
 21
172.268866
 31
0.0
  0
SPLINE
  5
107
100
AcDbEntity
  8
Layer_1
 62
7
100
AcDbSpline
 70
0
 71
3
 72
19
 73
15
 74
13
 40
0.000000
 40
0.000000
 40
0.000000
 40
0.000000
 40
0.785314
 40
1.547324
 40
2.332638
 40
3.117953
 40
3.879963
 40
4.665277
 40
5.450591
 40
6.212601
 40
6.997915
 40
7.783230
 40
8.545240
 40
9.330554
 40
9.330554
 40
9.330554
 40
9.330554
 10
141.375814
 20
145.251379
 30
0.0
 10
141.417092
 20
144.986607
 30
0.0
 10
141.498425
 20
144.464921
 30
0.0
 10
142.096378
 20
143.890584
 30
0.0
 10
142.876384
 20
143.677790
 30
0.0
 10
143.664579
 20
143.890584
 30
0.0
 10
144.238452
 20
144.464921
 30
0.0
 10
144.451405
 20
145.251379
 30
0.0
 10
144.238452
 20
146.037836
 30
0.0
 10
143.664579
 20
146.612173
 30
0.0
 10
142.876384
 20
146.824968
 30
0.0
 10
142.096378
 20
146.612173
 30
0.0
 10
141.498425
 20
146.037836
 30
0.0
 10
141.417092
 20
145.516150
 30
0.0
 10
141.375814
 20
145.251379
 30
0.0
 11
141.375814
 21
145.251379
 31
0.0
 11
141.580870
 21
144.493308
 31
0.0
 11
142.119692
 21
143.954486
 31
0.0
 11
142.877763
 21
143.749430
 31
0.0
 11
143.635833
 21
143.954486
 31
0.0
 11
144.174655
 21
144.493308
 31
0.0
 11
144.379711
 21
145.251379
 31
0.0
 11
144.174655
 21
146.009449
 31
0.0
 11
143.635833
 21
146.548271
 31
0.0
 11
142.877763
 21
146.753327
 31
0.0
 11
142.119692
 21
146.548271
 31
0.0
 11
141.580870
 21
146.009449
 31
0.0
 11
141.375814
 21
145.251379
 31
0.0
  0
SPLINE
  5
108
100
AcDbEntity
  8
Layer_1
 62
7
100
AcDbSpline
 70
0
 71
3
 72
19
 73
15
 74
13
 40
0.000000
 40
0.000000
 40
0.000000
 40
0.000000
 40
0.785315
 40
1.547328
 40
2.332634
 40
3.117940
 40
3.879953
 40
4.665269
 40
5.450584
 40
6.212597
 40
6.997903
 40
7.783209
 40
8.545222
 40
9.330537
 40
9.330537
 40
9.330537
 40
9.330537
 10
-153.819160
 20
148.253322
 30
0.0
 10
-153.777880
 20
147.988550
 30
0.0
 10
-153.696545
 20
147.466863
 30
0.0
 10
-153.098590
 20
146.892531
 30
0.0
 10
-152.318590
 20
146.679731
 30
0.0
 10
-151.530402
 20
146.892531
 30
0.0
 10
-150.956528
 20
147.466863
 30
0.0
 10
-150.743567
 20
148.253322
 30
0.0
 10
-150.956528
 20
149.039781
 30
0.0
 10
-151.530402
 20
149.614112
 30
0.0
 10
-152.318590
 20
149.826912
 30
0.0
 10
-153.098590
 20
149.614112
 30
0.0
 10
-153.696545
 20
149.039781
 30
0.0
 10
-153.777880
 20
148.518093
 30
0.0
 10
-153.819160
 20
148.253322
 30
0.0
 11
-153.819160
 21
148.253322
 31
0.0
 11
-153.614100
 21
147.495251
 31
0.0
 11
-153.075273
 21
146.956429
 31
0.0
 11
-152.317212
 21
146.751373
 31
0.0
 11
-151.559150
 21
146.956429
 31
0.0
 11
-151.020323
 21
147.495251
 31
0.0
 11
-150.815263
 21
148.253322
 31
0.0
 11
-151.020323
 21
149.011392
 31
0.0
 11
-151.559150
 21
149.550214
 31
0.0
 11
-152.317212
 21
149.755270
 31
0.0
 11
-153.075273
 21
149.550214
 31
0.0
 11
-153.614100
 21
149.011392
 31
0.0
 11
-153.819160
 21
148.253322
 31
0.0
  0
SPLINE
  5
109
100
AcDbEntity
  8
Layer_1
 62
7
100
AcDbSpline
 70
0
 71
3
 72
19
 73
15
 74
13
 40
0.000000
 40
0.000000
 40
0.000000
 40
0.000000
 40
0.785314
 40
1.547324
 40
2.332638
 40
3.117953
 40
3.879963
 40
4.665277
 40
5.450591
 40
6.212601
 40
6.997915
 40
7.783230
 40
8.545240
 40
9.330554
 40
9.330554
 40
9.330554
 40
9.330554
 10
411.554596
 20
145.251379
 30
0.0
 10
411.595875
 20
144.986607
 30
0.0
 10
411.677207
 20
144.464921
 30
0.0
 10
412.275161
 20
143.890584
 30
0.0
 10
413.055167
 20
143.677790
 30
0.0
 10
413.843361
 20
143.890584
 30
0.0
 10
414.417235
 20
144.464921
 30
0.0
 10
414.630187
 20
145.251379
 30
0.0
 10
414.417235
 20
146.037836
 30
0.0
 10
413.843361
 20
146.612173
 30
0.0
 10
413.055167
 20
146.824968
 30
0.0
 10
412.275161
 20
146.612173
 30
0.0
 10
411.677207
 20
146.037836
 30
0.0
 10
411.595875
 20
145.516150
 30
0.0
 10
411.554596
 20
145.251379
 30
0.0
 11
411.554596
 21
145.251379
 31
0.0
 11
411.759652
 21
144.493308
 31
0.0
 11
412.298475
 21
143.954486
 31
0.0
 11
413.056545
 21
143.749430
 31
0.0
 11
413.814615
 21
143.954486
 31
0.0
 11
414.353438
 21
144.493308
 31
0.0
 11
414.558494
 21
145.251379
 31
0.0
 11
414.353438
 21
146.009449
 31
0.0
 11
413.814615
 21
146.548271
 31
0.0
 11
413.056545
 21
146.753327
 31
0.0
 11
412.298475
 21
146.548271
 31
0.0
 11
411.759652
 21
146.009449
 31
0.0
 11
411.554596
 21
145.251379
 31
0.0
  0
SPLINE
  5
10a
100
AcDbEntity
  8
Layer_1
 62
7
100
AcDbSpline
 70
0
 71
3
 72
19
 73
15
 74
13
 40
0.000000
 40
0.000000
 40
0.000000
 40
0.000000
 40
0.785314
 40
1.547324
 40
2.332638
 40
3.117953
 40
3.879963
 40
4.665277
 40
5.450591
 40
6.212601
 40
6.997915
 40
7.783230
 40
8.545240
 40
9.330554
 40
9.330554
 40
9.330554
 40
9.330554
 10
344.010878
 20
145.251379
 30
0.0
 10
344.052156
 20
144.986607
 30
0.0
 10
344.133489
 20
144.464921
 30
0.0
 10
344.731442
 20
143.890584
 30
0.0
 10
345.511448
 20
143.677790
 30
0.0
 10
346.299643
 20
143.890584
 30
0.0
 10
346.873516
 20
144.464921
 30
0.0
 10
347.086469
 20
145.251379
 30
0.0
 10
346.873516
 20
146.037836
 30
0.0
 10
346.299643
 20
146.612173
 30
0.0
 10
345.511448
 20
146.824968
 30
0.0
 10
344.731442
 20
146.612173
 30
0.0
 10
344.133489
 20
146.037836
 30
0.0
 10
344.052156
 20
145.516150
 30
0.0
 10
344.010878
 20
145.251379
 30
0.0
 11
344.010878
 21
145.251379
 31
0.0
 11
344.215934
 21
144.493308
 31
0.0
 11
344.754756
 21
143.954486
 31
0.0
 11
345.512827
 21
143.749430
 31
0.0
 11
346.270897
 21
143.954486
 31
0.0
 11
346.809719
 21
144.493308
 31
0.0
 11
347.014775
 21
145.251379
 31
0.0
 11
346.809719
 21
146.009449
 31
0.0
 11
346.270897
 21
146.548271
 31
0.0
 11
345.512827
 21
146.753327
 31
0.0
 11
344.754756
 21
146.548271
 31
0.0
 11
344.215934
 21
146.009449
 31
0.0
 11
344.010878
 21
145.251379
 31
0.0
  0
SPLINE
  5
10b
100
AcDbEntity
  8
Layer_1
 62
7
100
AcDbSpline
 70
0
 71
3
 72
19
 73
15
 74
13
 40
0.000000
 40
0.000000
 40
0.000000
 40
0.000000
 40
0.785314
 40
1.547324
 40
2.332638
 40
3.117953
 40
3.879963
 40
4.665277
 40
5.450591
 40
6.212601
 40
6.997915
 40
7.783230
 40
8.545240
 40
9.330554
 40
9.330554
 40
9.330554
 40
9.330554
 10
276.465205
 20
145.251379
 30
0.0
 10
276.506484
 20
144.986607
 30
0.0
 10
276.587816
 20
144.464921
 30
0.0
 10
277.185770
 20
143.890584
 30
0.0
 10
277.965775
 20
143.677790
 30
0.0
 10
278.753970
 20
143.890584
 30
0.0
 10
279.327844
 20
144.464921
 30
0.0
 10
279.540796
 20
145.251379
 30
0.0
 10
279.327844
 20
146.037836
 30
0.0
 10
278.753970
 20
146.612173
 30
0.0
 10
277.965775
 20
146.824968
 30
0.0
 10
277.185770
 20
146.612173
 30
0.0
 10
276.587816
 20
146.037836
 30
0.0
 10
276.506484
 20
145.516150
 30
0.0
 10
276.465205
 20
145.251379
 30
0.0
 11
276.465205
 21
145.251379
 31
0.0
 11
276.670261
 21
144.493308
 31
0.0
 11
277.209084
 21
143.954486
 31
0.0
 11
277.967154
 21
143.749430
 31
0.0
 11
278.725224
 21
143.954486
 31
0.0
 11
279.264046
 21
144.493308
 31
0.0
 11
279.469103
 21
145.251379
 31
0.0
 11
279.264046
 21
146.009449
 31
0.0
 11
278.725224
 21
146.548271
 31
0.0
 11
277.967154
 21
146.753327
 31
0.0
 11
277.209084
 21
146.548271
 31
0.0
 11
276.670261
 21
146.009449
 31
0.0
 11
276.465205
 21
145.251379
 31
0.0
  0
SPLINE
  5
10c
100
AcDbEntity
  8
Layer_1
 62
7
100
AcDbSpline
 70
0
 71
3
 72
19
 73
15
 74
13
 40
0.000000
 40
0.000000
 40
0.000000
 40
0.000000
 40
0.785314
 40
1.547324
 40
2.332638
 40
3.117953
 40
3.879963
 40
4.665277
 40
5.450591
 40
6.212601
 40
6.997915
 40
7.783230
 40
8.545240
 40
9.330554
 40
9.330554
 40
9.330554
 40
9.330554
 10
208.921487
 20
145.251379
 30
0.0
 10
208.962765
 20
144.986607
 30
0.0
 10
209.044097
 20
144.464921
 30
0.0
 10
209.642051
 20
143.890584
 30
0.0
 10
210.422057
 20
143.677790
 30
0.0
 10
211.210252
 20
143.890584
 30
0.0
 10
211.784125
 20
144.464921
 30
0.0
 10
211.997077
 20
145.251379
 30
0.0
 10
211.784125
 20
146.037836
 30
0.0
 10
211.210252
 20
146.612173
 30
0.0
 10
210.422057
 20
146.824968
 30
0.0
 10
209.642051
 20
146.612173
 30
0.0
 10
209.044097
 20
146.037836
 30
0.0
 10
208.962765
 20
145.516150
 30
0.0
 10
208.921487
 20
145.251379
 30
0.0
 11
208.921487
 21
145.251379
 31
0.0
 11
209.126543
 21
144.493308
 31
0.0
 11
209.665365
 21
143.954486
 31
0.0
 11
210.423435
 21
143.749430
 31
0.0
 11
211.181506
 21
143.954486
 31
0.0
 11
211.720328
 21
144.493308
 31
0.0
 11
211.925384
 21
145.251379
 31
0.0
 11
211.720328
 21
146.009449
 31
0.0
 11
211.181506
 21
146.548271
 31
0.0
 11
210.423435
 21
146.753327
 31
0.0
 11
209.665365
 21
146.548271
 31
0.0
 11
209.126543
 21
146.009449
 31
0.0
 11
208.921487
 21
145.251379
 31
0.0
  0
SPLINE
  5
10d
100
AcDbEntity
  8
Layer_1
 62
7
100
AcDbSpline
 70
0
 71
3
 72
19
 73
15
 74
13
 40
0.000000
 40
0.000000
 40
0.000000
 40
0.000000
 40
0.785314
 40
1.547324
 40
2.332638
 40
3.117953
 40
3.879963
 40
4.665277
 40
5.450591
 40
6.212601
 40
6.997915
 40
7.783230
 40
8.545240
 40
9.330554
 40
9.330554
 40
9.330554
 40
9.330554
 10
73.830141
 20
145.251379
 30
0.0
 10
73.871420
 20
144.986607
 30
0.0
 10
73.952752
 20
144.464921
 30
0.0
 10
74.550706
 20
143.890584
 30
0.0
 10
75.330711
 20
143.677790
 30
0.0
 10
76.118906
 20
143.890584
 30
0.0
 10
76.692780
 20
144.464921
 30
0.0
 10
76.905732
 20
145.251379
 30
0.0
 10
76.692780
 20
146.037836
 30
0.0
 10
76.118906
 20
146.612173
 30
0.0
 10
75.330711
 20
146.824968
 30
0.0
 10
74.550706
 20
146.612173
 30
0.0
 10
73.952752
 20
146.037836
 30
0.0
 10
73.871420
 20
145.516150
 30
0.0
 10
73.830141
 20
145.251379
 30
0.0
 11
73.830141
 21
145.251379
 31
0.0
 11
74.035197
 21
144.493308
 31
0.0
 11
74.574020
 21
143.954486
 31
0.0
 11
75.332090
 21
143.749430
 31
0.0
 11
76.090160
 21
143.954486
 31
0.0
 11
76.628982
 21
144.493308
 31
0.0
 11
76.834039
 21
145.251379
 31
0.0
 11
76.628982
 21
146.009449
 31
0.0
 11
76.090160
 21
146.548271
 31
0.0
 11
75.332090
 21
146.753327
 31
0.0
 11
74.574020
 21
146.548271
 31
0.0
 11
74.035197
 21
146.009449
 31
0.0
 11
73.830141
 21
145.251379
 31
0.0
  0
SPLINE
  5
10e
100
AcDbEntity
  8
Layer_1
 62
7
100
AcDbSpline
 70
0
 71
3
 72
19
 73
15
 74
13
 40
0.000000
 40
0.000000
 40
0.000000
 40
0.000000
 40
0.785314
 40
1.547324
 40
2.332638
 40
3.117953
 40
3.879963
 40
4.665277
 40
5.450591
 40
6.212601
 40
6.997915
 40
7.783230
 40
8.545240
 40
9.330554
 40
9.330554
 40
9.330554
 40
9.330554
 10
6.286423
 20
145.251379
 30
0.0
 10
6.327701
 20
144.986607
 30
0.0
 10
6.409033
 20
144.464921
 30
0.0
 10
7.006987
 20
143.890584
 30
0.0
 10
7.786993
 20
143.677790
 30
0.0
 10
8.575188
 20
143.890584
 30
0.0
 10
9.149061
 20
144.464921
 30
0.0
 10
9.362013
 20
145.251379
 30
0.0
 10
9.149061
 20
146.037836
 30
0.0
 10
8.575188
 20
146.612173
 30
0.0
 10
7.786993
 20
146.824968
 30
0.0
 10
7.006987
 20
146.612173
 30
0.0
 10
6.409033
 20
146.037836
 30
0.0
 10
6.327701
 20
145.516150
 30
0.0
 10
6.286423
 20
145.251379
 30
0.0
 11
6.286423
 21
145.251379
 31
0.0
 11
6.491479
 21
144.493308
 31
0.0
 11
7.030301
 21
143.954486
 31
0.0
 11
7.788371
 21
143.749430
 31
0.0
 11
8.546442
 21
143.954486
 31
0.0
 11
9.085264
 21
144.493308
 31
0.0
 11
9.290320
 21
145.251379
 31
0.0
 11
9.085264
 21
146.009449
 31
0.0
 11
8.546442
 21
146.548271
 31
0.0
 11
7.788371
 21
146.753327
 31
0.0
 11
7.030301
 21
146.548271
 31
0.0
 11
6.491479
 21
146.009449
 31
0.0
 11
6.286423
 21
145.251379
 31
0.0
  0
SPLINE
  5
10f
100
AcDbEntity
  8
Layer_1
 62
7
100
AcDbSpline
 70
0
 71
3
 72
19
 73
15
 74
13
 40
0.000000
 40
0.000000
 40
0.000000
 40
0.000000
 40
0.785315
 40
1.547328
 40
2.332634
 40
3.117940
 40
3.879953
 40
4.665269
 40
5.450584
 40
6.212597
 40
6.997903
 40
7.783209
 40
8.545222
 40
9.330537
 40
9.330537
 40
9.330537
 40
9.330537
 10
-61.259250
 20
145.251379
 30
0.0
 10
-61.217970
 20
144.986607
 30
0.0
 10
-61.136635
 20
144.464920
 30
0.0
 10
-60.538680
 20
143.890588
 30
0.0
 10
-59.758680
 20
143.677788
 30
0.0
 10
-58.970491
 20
143.890588
 30
0.0
 10
-58.396617
 20
144.464920
 30
0.0
 10
-58.183657
 20
145.251379
 30
0.0
 10
-58.396617
 20
146.037838
 30
0.0
 10
-58.970491
 20
146.612169
 30
0.0
 10
-59.758680
 20
146.824969
 30
0.0
 10
-60.538680
 20
146.612169
 30
0.0
 10
-61.136635
 20
146.037838
 30
0.0
 10
-61.217970
 20
145.516150
 30
0.0
 10
-61.259250
 20
145.251379
 30
0.0
 11
-61.259250
 21
145.251379
 31
0.0
 11
-61.054190
 21
144.493308
 31
0.0
 11
-60.515363
 21
143.954486
 31
0.0
 11
-59.757301
 21
143.749430
 31
0.0
 11
-58.999240
 21
143.954486
 31
0.0
 11
-58.460413
 21
144.493308
 31
0.0
 11
-58.255353
 21
145.251379
 31
0.0
 11
-58.460413
 21
146.009449
 31
0.0
 11
-58.999240
 21
146.548271
 31
0.0
 11
-59.757301
 21
146.753327
 31
0.0
 11
-60.515363
 21
146.548271
 31
0.0
 11
-61.054190
 21
146.009449
 31
0.0
 11
-61.259250
 21
145.251379
 31
0.0
  0
SPLINE
  5
110
100
AcDbEntity
  8
Layer_1
 62
7
100
AcDbSpline
 70
0
 71
3
 72
19
 73
15
 74
13
 40
0.000000
 40
0.000000
 40
0.000000
 40
0.000000
 40
0.785315
 40
1.547328
 40
2.332634
 40
3.117940
 40
3.879953
 40
4.665269
 40
5.450584
 40
6.212597
 40
6.997903
 40
7.783209
 40
8.545222
 40
9.330537
 40
9.330537
 40
9.330537
 40
9.330537
 10
-128.802968
 20
145.251379
 30
0.0
 10
-128.761688
 20
144.986607
 30
0.0
 10
-128.680353
 20
144.464920
 30
0.0
 10
-128.082398
 20
143.890588
 30
0.0
 10
-127.302398
 20
143.677788
 30
0.0
 10
-126.514210
 20
143.890588
 30
0.0
 10
-125.940336
 20
144.464920
 30
0.0
 10
-125.727375
 20
145.251379
 30
0.0
 10
-125.940336
 20
146.037838
 30
0.0
 10
-126.514210
 20
146.612169
 30
0.0
 10
-127.302398
 20
146.824969
 30
0.0
 10
-128.082398
 20
146.612169
 30
0.0
 10
-128.680353
 20
146.037838
 30
0.0
 10
-128.761688
 20
145.516150
 30
0.0
 10
-128.802968
 20
145.251379
 30
0.0
 11
-128.802968
 21
145.251379
 31
0.0
 11
-128.597908
 21
144.493308
 31
0.0
 11
-128.059081
 21
143.954486
 31
0.0
 11
-127.301020
 21
143.749430
 31
0.0
 11
-126.542958
 21
143.954486
 31
0.0
 11
-126.004131
 21
144.493308
 31
0.0
 11
-125.799071
 21
145.251379
 31
0.0
 11
-126.004131
 21
146.009449
 31
0.0
 11
-126.542958
 21
146.548271
 31
0.0
 11
-127.301020
 21
146.753327
 31
0.0
 11
-128.059081
 21
146.548271
 31
0.0
 11
-128.597908
 21
146.009449
 31
0.0
 11
-128.802968
 21
145.251379
 31
0.0
  0
ENDSEC
  0
SECTION
  2
OBJECTS
  0
DICTIONARY
  5
C
330
0
100
AcDbDictionary
  3
ACAD_GROUP
350
D
  3
ACAD_MLINESTYLE
350
17
  0
DICTIONARY
  5
D
330
C
100
AcDbDictionary
  0
DICTIONARY
  5
1A
330
C
100
AcDbDictionary
  0
DICTIONARY
  5
17
330
C
100
AcDbDictionary
  3
STANDARD
350
18
  0
DICTIONARY
  5
19
330
C
100
AcDbDictionary
  0
ENDSEC
  0
EOF
