  0
SECTION
  2
HEADER
  9
$ACADVER
  1
AC1014
  9
$HANDSEED
  5
FFFF
  9
$MEASUREMENT
 70
     1
  0
ENDSEC
  0
SECTION
  2
TABLES
  0
TABLE
  2
VPORT
  5
8
330
0
100
AcDbSymbolTable
 70
     4
  0
VPORT
  5
2E
330
8
100
AcDbSymbolTableRecord
100
AcDbViewportTableRecord
  2
*ACTIVE
 70
     0
 10
0.0
 20
0.0
 11
1.0
 21
1.0
 12
210.0
 22
148.5
 13
0.0
 23
0.0
 14
10.0
 24
10.0
 15
10.0
 25
10.0
 16
0.0
 26
0.0
 36
1.0
 17
0.0
 27
0.0
 37
0.0
 40
341.0
 41
1.24
 42
50.0
 43
0.0
 44
0.0
 50
0.0
 51
0.0
 71
     0
 72
   100
 73
     1
 74
     3
 75
     0
 76
     0
 77
     0
 78
     0
  0
ENDTAB
  0
TABLE
  2
LTYPE
  5
5
330
0
100
AcDbSymbolTable
 70
     1
  0
LTYPE
  5
14
330
5
100
AcDbSymbolTableRecord
100
AcDbLinetypeTableRecord
  2
BYBLOCK
 70
     0
  3

 72
    65
 73
     0
 40
0.0
  0
LTYPE
  5
15
330
5
100
AcDbSymbolTableRecord
100
AcDbLinetypeTableRecord
  2
BYLAYER
 70
     0
  3

 72
    65
 73
     0
 40
0.0
  0
LTYPE
  5
16
330
5
100
AcDbSymbolTableRecord
100
AcDbLinetypeTableRecord
  2
CONTINUOUS
 70
     0
  3
Solid line
 72
    65
 73
     0
 40
0.0
  0
ENDTAB
  0
TABLE
  2
LAYER
  5
2
100
AcDbSymbolTable
 70
2
  0
LAYER
  5
50
100
AcDbSymbolTableRecord
100
AcDbLayerTableRecord
  2
0
 70
0
  6
CONTINUOUS
  0
LAYER
  5
51
100
AcDbSymbolTableRecord
100
AcDbLayerTableRecord
  2
Goal_Parts_v0
 70
0
  6
CONTINUOUS
  0
ENDTAB
  0
TABLE
  2
STYLE
  5
3
330
0
100
AcDbSymbolTable
 70
     1
  0
STYLE
  5
11
330
3
100
AcDbSymbolTableRecord
100
AcDbTextStyleTableRecord
  2
STANDARD
 70
     0
 40
0.0
 41
1.0
 50
0.0
 71
     0
 42
2.5
  3
txt
  4

  0
ENDTAB
  0
TABLE
  2
VIEW
  5
6
330
0
100
AcDbSymbolTable
 70
     0
  0
ENDTAB
  0
TABLE
  2
UCS
  5
7
330
0
100
AcDbSymbolTable
 70
     0
  0
ENDTAB
  0
TABLE
  2
APPID
  5
9
330
0
100
AcDbSymbolTable
 70
     2
  0
APPID
  5
12
330
9
100
AcDbSymbolTableRecord
100
AcDbRegAppTableRecord
  2
ACAD
 70
     0
  0
ENDTAB
  0
TABLE
  2
DIMSTYLE
  5
A
330
0
100
AcDbSymbolTable
 70
     1
  0
DIMSTYLE
105
27
330
A
100
AcDbSymbolTableRecord
100
AcDbDimStyleTableRecord
  2
ISO-25
 70
     0
  3

  4

  5

  6

  7

 40
1.0
 41
2.5
 42
0.625
 43
3.75
 44
1.25
 45
0.0
 46
0.0
 47
0.0
 48
0.0
140
2.5
141
2.5
142
0.0
143
0.03937007874016
144
1.0
145
0.0
146
1.0
147
0.625
 71
     0
 72
     0
 73
     0
 74
     0
 75
     0
 76
     0
 77
     1
 78
     8
170
     0
171
     3
172
     1
173
     0
174
     0
175
     0
176
     0
177
     0
178
     0
270
     2
271
     2
272
     2
273
     2
274
     3
340
11
275
     0
280
     0
281
     0
282
     0
283
     0
284
     8
285
     0
286
     0
287
     3
288
     0
  0
ENDTAB
  0
TABLE
  2
BLOCK_RECORD
  5
1
330
0
100
AcDbSymbolTable
 70
     1
  0
BLOCK_RECORD
  5
1F
330
1
100
AcDbSymbolTableRecord
100
AcDbBlockTableRecord
  2
*MODEL_SPACE
  0
BLOCK_RECORD
  5
1B
330
1
100
AcDbSymbolTableRecord
100
AcDbBlockTableRecord
  2
*PAPER_SPACE
  0
ENDTAB
  0
ENDSEC
  0
SECTION
  2
BLOCKS
  0
BLOCK
  5
20
330
1F
100
AcDbEntity
  8
0
100
AcDbBlockBegin
  2
*MODEL_SPACE
 70
     0
 10
0.0
 20
0.0
 30
0.0
  3
*MODEL_SPACE
  1

  0
ENDBLK
  5
21
330
1F
100
AcDbEntity
  8
0
100
AcDbBlockEnd
  0
BLOCK
  5
1C
330
1B
100
AcDbEntity
 67
     1
  8
0
100
AcDbBlockBegin
  2
*PAPER_SPACE
  1

  0
ENDBLK
  5
1D
330
1B
100
AcDbEntity
 67
     1
  8
0
100
AcDbBlockEnd
  0
ENDSEC
  0
SECTION
  2
ENTITIES
  0
SPLINE
  5
100
100
AcDbEntity
  8
Goal_Parts_v0
 62
7
100
AcDbSpline
 70
0
 71
3
 72
19
 73
15
 74
13
 40
0.000000
 40
0.000000
 40
0.000000
 40
0.000000
 40
0.653573
 40
1.287760
 40
1.941333
 40
2.594906
 40
3.229094
 40
3.882666
 40
4.536239
 40
5.170427
 40
5.823999
 40
6.477572
 40
7.111760
 40
7.765332
 40
7.765332
 40
7.765332
 40
7.765332
 10
379.384877
 20
292.164770
 30
0.0
 10
379.164524
 20
292.130414
 30
0.0
 10
378.730351
 20
292.062721
 30
0.0
 10
378.252363
 20
291.565076
 30
0.0
 10
378.075254
 20
290.915920
 30
0.0
 10
378.252363
 20
290.259948
 30
0.0
 10
378.730351
 20
289.782345
 30
0.0
 10
379.384878
 20
289.605105
 30
0.0
 10
380.039404
 20
289.782345
 30
0.0
 10
380.517392
 20
290.259948
 30
0.0
 10
380.694501
 20
290.915920
 30
0.0
 10
380.517392
 20
291.565076
 30
0.0
 10
380.039404
 20
292.062721
 30
0.0
 10
379.605231
 20
292.130414
 30
0.0
 10
379.384877
 20
292.164770
 30
0.0
 11
379.384877
 21
292.164770
 31
0.0
 11
378.753980
 21
291.994109
 31
0.0
 11
378.305541
 21
291.545670
 31
0.0
 11
378.134880
 21
290.914772
 31
0.0
 11
378.305541
 21
290.283875
 31
0.0
 11
378.753980
 21
289.835436
 31
0.0
 11
379.384877
 21
289.664775
 31
0.0
 11
380.015775
 21
289.835436
 31
0.0
 11
380.464214
 21
290.283875
 31
0.0
 11
380.634875
 21
290.914772
 31
0.0
 11
380.464214
 21
291.545670
 31
0.0
 11
380.015775
 21
291.994109
 31
0.0
 11
379.384877
 21
292.164770
 31
0.0
  0
SPLINE
  5
101
100
AcDbEntity
  8
Goal_Parts_v0
 62
7
100
AcDbSpline
 70
0
 71
3
 72
19
 73
15
 74
13
 40
0.000000
 40
0.000000
 40
0.000000
 40
0.000000
 40
0.653573
 40
1.287760
 40
1.941333
 40
2.594906
 40
3.229094
 40
3.882666
 40
4.536239
 40
5.170427
 40
5.823999
 40
6.477572
 40
7.111760
 40
7.765332
 40
7.765332
 40
7.765332
 40
7.765332
 10
229.385177
 20
352.165285
 30
0.0
 10
229.164824
 20
352.130929
 30
0.0
 10
228.730651
 20
352.063236
 30
0.0
 10
228.252663
 20
351.565591
 30
0.0
 10
228.075554
 20
350.916435
 30
0.0
 10
228.252663
 20
350.260463
 30
0.0
 10
228.730651
 20
349.782860
 30
0.0
 10
229.385177
 20
349.605620
 30
0.0
 10
230.039704
 20
349.782860
 30
0.0
 10
230.517692
 20
350.260463
 30
0.0
 10
230.694801
 20
350.916435
 30
0.0
 10
230.517692
 20
351.565591
 30
0.0
 10
230.039704
 20
352.063236
 30
0.0
 10
229.605531
 20
352.130929
 30
0.0
 10
229.385177
 20
352.165285
 30
0.0
 11
229.385177
 21
352.165285
 31
0.0
 11
228.754280
 21
351.994624
 31
0.0
 11
228.305841
 21
351.546185
 31
0.0
 11
228.135180
 21
350.915287
 31
0.0
 11
228.305841
 21
350.284390
 31
0.0
 11
228.754280
 21
349.835951
 31
0.0
 11
229.385177
 21
349.665290
 31
0.0
 11
230.016075
 21
349.835951
 31
0.0
 11
230.464514
 21
350.284390
 31
0.0
 11
230.635175
 21
350.915287
 31
0.0
 11
230.464514
 21
351.546185
 31
0.0
 11
230.016075
 21
351.994624
 31
0.0
 11
229.385177
 21
352.165285
 31
0.0
  0
SPLINE
  5
102
100
AcDbEntity
  8
Goal_Parts_v0
 62
7
100
AcDbSpline
 70
0
 71
3
 72
19
 73
15
 74
13
 40
0.000000
 40
0.000000
 40
0.000000
 40
0.000000
 40
0.653573
 40
1.287760
 40
1.941333
 40
2.594906
 40
3.229094
 40
3.882666
 40
4.536239
 40
5.170427
 40
5.823999
 40
6.477572
 40
7.111760
 40
7.765332
 40
7.765332
 40
7.765332
 40
7.765332
 10
164.101462
 20
239.741710
 30
0.0
 10
163.881109
 20
239.707354
 30
0.0
 10
163.446936
 20
239.639661
 30
0.0
 10
162.968948
 20
239.142016
 30
0.0
 10
162.791839
 20
238.492860
 30
0.0
 10
162.968948
 20
237.836888
 30
0.0
 10
163.446936
 20
237.359285
 30
0.0
 10
164.101463
 20
237.182045
 30
0.0
 10
164.755989
 20
237.359285
 30
0.0
 10
165.233977
 20
237.836888
 30
0.0
 10
165.411086
 20
238.492860
 30
0.0
 10
165.233977
 20
239.142016
 30
0.0
 10
164.755989
 20
239.639661
 30
0.0
 10
164.321816
 20
239.707354
 30
0.0
 10
164.101462
 20
239.741710
 30
0.0
 11
164.101462
 21
239.741710
 31
0.0
 11
163.470565
 21
239.571049
 31
0.0
 11
163.022126
 21
239.122610
 31
0.0
 11
162.851465
 21
238.491712
 31
0.0
 11
163.022126
 21
237.860815
 31
0.0
 11
163.470565
 21
237.412376
 31
0.0
 11
164.101462
 21
237.241715
 31
0.0
 11
164.732360
 21
237.412376
 31
0.0
 11
165.180799
 21
237.860815
 31
0.0
 11
165.351460
 21
238.491712
 31
0.0
 11
165.180799
 21
239.122610
 31
0.0
 11
164.732360
 21
239.571049
 31
0.0
 11
164.101462
 21
239.741710
 31
0.0
  0
SPLINE
  5
103
100
AcDbEntity
  8
Goal_Parts_v0
 62
7
100
AcDbSpline
 70
0
 71
3
 72
19
 73
15
 74
13
 40
0.000000
 40
0.000000
 40
0.000000
 40
0.000000
 40
0.653573
 40
1.287760
 40
1.941333
 40
2.594906
 40
3.229094
 40
3.882666
 40
4.536239
 40
5.170427
 40
5.823999
 40
6.477572
 40
7.111760
 40
7.765332
 40
7.765332
 40
7.765332
 40
7.765332
 10
199.385237
 20
322.165345
 30
0.0
 10
199.164884
 20
322.130989
 30
0.0
 10
198.730711
 20
322.063296
 30
0.0
 10
198.252723
 20
321.565651
 30
0.0
 10
198.075614
 20
320.916495
 30
0.0
 10
198.252723
 20
320.260523
 30
0.0
 10
198.730711
 20
319.782920
 30
0.0
 10
199.385237
 20
319.605680
 30
0.0
 10
200.039764
 20
319.782920
 30
0.0
 10
200.517752
 20
320.260523
 30
0.0
 10
200.694861
 20
320.916495
 30
0.0
 10
200.517752
 20
321.565651
 30
0.0
 10
200.039764
 20
322.063296
 30
0.0
 10
199.605591
 20
322.130989
 30
0.0
 10
199.385237
 20
322.165345
 30
0.0
 11
199.385237
 21
322.165345
 31
0.0
 11
198.754340
 21
321.994684
 31
0.0
 11
198.305901
 21
321.546245
 31
0.0
 11
198.135240
 21
320.915347
 31
0.0
 11
198.305901
 21
320.284450
 31
0.0
 11
198.754340
 21
319.836011
 31
0.0
 11
199.385237
 21
319.665350
 31
0.0
 11
200.016135
 21
319.836011
 31
0.0
 11
200.464574
 21
320.284450
 31
0.0
 11
200.635235
 21
320.915347
 31
0.0
 11
200.464574
 21
321.546245
 31
0.0
 11
200.016135
 21
321.994684
 31
0.0
 11
199.385237
 21
322.165345
 31
0.0
  0
SPLINE
  5
104
100
AcDbEntity
  8
Goal_Parts_v0
 62
7
100
AcDbSpline
 70
0
 71
3
 72
19
 73
15
 74
13
 40
0.000000
 40
0.000000
 40
0.000000
 40
0.000000
 40
0.653573
 40
1.287760
 40
1.941333
 40
2.594906
 40
3.229094
 40
3.882666
 40
4.536239
 40
5.170427
 40
5.823999
 40
6.477572
 40
7.111760
 40
7.765332
 40
7.765332
 40
7.765332
 40
7.765332
 10
379.384877
 20
322.165345
 30
0.0
 10
379.164524
 20
322.130989
 30
0.0
 10
378.730351
 20
322.063296
 30
0.0
 10
378.252363
 20
321.565651
 30
0.0
 10
378.075254
 20
320.916495
 30
0.0
 10
378.252363
 20
320.260523
 30
0.0
 10
378.730351
 20
319.782920
 30
0.0
 10
379.384878
 20
319.605680
 30
0.0
 10
380.039404
 20
319.782920
 30
0.0
 10
380.517392
 20
320.260523
 30
0.0
 10
380.694501
 20
320.916495
 30
0.0
 10
380.517392
 20
321.565651
 30
0.0
 10
380.039404
 20
322.063296
 30
0.0
 10
379.605231
 20
322.130989
 30
0.0
 10
379.384877
 20
322.165345
 30
0.0
 11
379.384877
 21
322.165345
 31
0.0
 11
378.753980
 21
321.994684
 31
0.0
 11
378.305541
 21
321.546245
 31
0.0
 11
378.134880
 21
320.915347
 31
0.0
 11
378.305541
 21
320.284450
 31
0.0
 11
378.753980
 21
319.836011
 31
0.0
 11
379.384877
 21
319.665350
 31
0.0
 11
380.015775
 21
319.836011
 31
0.0
 11
380.464214
 21
320.284450
 31
0.0
 11
380.634875
 21
320.915347
 31
0.0
 11
380.464214
 21
321.546245
 31
0.0
 11
380.015775
 21
321.994684
 31
0.0
 11
379.384877
 21
322.165345
 31
0.0
  0
SPLINE
  5
105
100
AcDbEntity
  8
Goal_Parts_v0
 62
7
100
AcDbSpline
 70
0
 71
3
 72
19
 73
15
 74
13
 40
0.000000
 40
0.000000
 40
0.000000
 40
0.000000
 40
0.653573
 40
1.287760
 40
1.941333
 40
2.594906
 40
3.229094
 40
3.882666
 40
4.536239
 40
5.170427
 40
5.823999
 40
6.477572
 40
7.111760
 40
7.765332
 40
7.765332
 40
7.765332
 40
7.765332
 10
391.442257
 20
263.015730
 30
0.0
 10
391.221904
 20
262.981374
 30
0.0
 10
390.787731
 20
262.913681
 30
0.0
 10
390.309743
 20
262.416036
 30
0.0
 10
390.132634
 20
261.766880
 30
0.0
 10
390.309743
 20
261.110908
 30
0.0
 10
390.787731
 20
260.633305
 30
0.0
 10
391.442258
 20
260.456065
 30
0.0
 10
392.096784
 20
260.633305
 30
0.0
 10
392.574772
 20
261.110908
 30
0.0
 10
392.751881
 20
261.766880
 30
0.0
 10
392.574772
 20
262.416036
 30
0.0
 10
392.096784
 20
262.913681
 30
0.0
 10
391.662611
 20
262.981374
 30
0.0
 10
391.442257
 20
263.015730
 30
0.0
 11
391.442257
 21
263.015730
 31
0.0
 11
390.811360
 21
262.845069
 31
0.0
 11
390.362921
 21
262.396630
 31
0.0
 11
390.192260
 21
261.765732
 31
0.0
 11
390.362921
 21
261.134835
 31
0.0
 11
390.811360
 21
260.686396
 31
0.0
 11
391.442257
 21
260.515735
 31
0.0
 11
392.073155
 21
260.686396
 31
0.0
 11
392.521594
 21
261.134835
 31
0.0
 11
392.692255
 21
261.765732
 31
0.0
 11
392.521594
 21
262.396630
 31
0.0
 11
392.073155
 21
262.845069
 31
0.0
 11
391.442257
 21
263.015730
 31
0.0
  0
SPLINE
  5
106
100
AcDbEntity
  8
Goal_Parts_v0
 62
7
100
AcDbSpline
 70
0
 71
3
 72
19
 73
15
 74
13
 40
0.000000
 40
0.000000
 40
0.000000
 40
0.000000
 40
0.653573
 40
1.287760
 40
1.941333
 40
2.594906
 40
3.229094
 40
3.882666
 40
4.536239
 40
5.170427
 40
5.823999
 40
6.477572
 40
7.111760
 40
7.765332
 40
7.765332
 40
7.765332
 40
7.765332
 10
289.385057
 20
352.165285
 30
0.0
 10
289.164704
 20
352.130929
 30
0.0
 10
288.730531
 20
352.063236
 30
0.0
 10
288.252543
 20
351.565591
 30
0.0
 10
288.075434
 20
350.916435
 30
0.0
 10
288.252543
 20
350.260463
 30
0.0
 10
288.730531
 20
349.782860
 30
0.0
 10
289.385057
 20
349.605620
 30
0.0
 10
290.039584
 20
349.782860
 30
0.0
 10
290.517572
 20
350.260463
 30
0.0
 10
290.694681
 20
350.916435
 30
0.0
 10
290.517572
 20
351.565591
 30
0.0
 10
290.039584
 20
352.063236
 30
0.0
 10
289.605411
 20
352.130929
 30
0.0
 10
289.385057
 20
352.165285
 30
0.0
 11
289.385057
 21
352.165285
 31
0.0
 11
288.754160
 21
351.994624
 31
0.0
 11
288.305721
 21
351.546185
 31
0.0
 11
288.135060
 21
350.915287
 31
0.0
 11
288.305721
 21
350.284390
 31
0.0
 11
288.754160
 21
349.835951
 31
0.0
 11
289.385057
 21
349.665290
 31
0.0
 11
290.015955
 21
349.835951
 31
0.0
 11
290.464394
 21
350.284390
 31
0.0
 11
290.635055
 21
350.915287
 31
0.0
 11
290.464394
 21
351.546185
 31
0.0
 11
290.015955
 21
351.994624
 31
0.0
 11
289.385057
 21
352.165285
 31
0.0
  0
SPLINE
  5
107
100
AcDbEntity
  8
Goal_Parts_v0
 62
7
100
AcDbSpline
 70
0
 71
3
 72
19
 73
15
 74
13
 40
0.000000
 40
0.000000
 40
0.000000
 40
0.000000
 40
0.653573
 40
1.287760
 40
1.941333
 40
2.594906
 40
3.229094
 40
3.882666
 40
4.536239
 40
5.170427
 40
5.823999
 40
6.477572
 40
7.111760
 40
7.765332
 40
7.765332
 40
7.765332
 40
7.765332
 10
187.327857
 20
263.015730
 30
0.0
 10
187.107504
 20
262.981374
 30
0.0
 10
186.673331
 20
262.913681
 30
0.0
 10
186.195343
 20
262.416036
 30
0.0
 10
186.018234
 20
261.766880
 30
0.0
 10
186.195343
 20
261.110908
 30
0.0
 10
186.673331
 20
260.633305
 30
0.0
 10
187.327858
 20
260.456065
 30
0.0
 10
187.982384
 20
260.633305
 30
0.0
 10
188.460372
 20
261.110908
 30
0.0
 10
188.637481
 20
261.766880
 30
0.0
 10
188.460372
 20
262.416036
 30
0.0
 10
187.982384
 20
262.913681
 30
0.0
 10
187.548211
 20
262.981374
 30
0.0
 10
187.327857
 20
263.015730
 30
0.0
 11
187.327857
 21
263.015730
 31
0.0
 11
186.696960
 21
262.845069
 31
0.0
 11
186.248521
 21
262.396630
 31
0.0
 11
186.077860
 21
261.765732
 31
0.0
 11
186.248521
 21
261.134835
 31
0.0
 11
186.696960
 21
260.686396
 31
0.0
 11
187.327857
 21
260.515735
 31
0.0
 11
187.958755
 21
260.686396
 31
0.0
 11
188.407194
 21
261.134835
 31
0.0
 11
188.577855
 21
261.765732
 31
0.0
 11
188.407194
 21
262.396630
 31
0.0
 11
187.958755
 21
262.845069
 31
0.0
 11
187.327857
 21
263.015730
 31
0.0
  0
SPLINE
  5
108
100
AcDbEntity
  8
Goal_Parts_v0
 62
7
100
AcDbSpline
 70
0
 71
3
 72
19
 73
15
 74
13
 40
0.000000
 40
0.000000
 40
0.000000
 40
0.000000
 40
0.653573
 40
1.287760
 40
1.941333
 40
2.594906
 40
3.229094
 40
3.882666
 40
4.536239
 40
5.170427
 40
5.823999
 40
6.477572
 40
7.111760
 40
7.765332
 40
7.765332
 40
7.765332
 40
7.765332
 10
199.385237
 20
292.164770
 30
0.0
 10
199.164884
 20
292.130414
 30
0.0
 10
198.730711
 20
292.062721
 30
0.0
 10
198.252723
 20
291.565076
 30
0.0
 10
198.075614
 20
290.915920
 30
0.0
 10
198.252723
 20
290.259948
 30
0.0
 10
198.730711
 20
289.782345
 30
0.0
 10
199.385237
 20
289.605105
 30
0.0
 10
200.039764
 20
289.782345
 30
0.0
 10
200.517752
 20
290.259948
 30
0.0
 10
200.694861
 20
290.915920
 30
0.0
 10
200.517752
 20
291.565076
 30
0.0
 10
200.039764
 20
292.062721
 30
0.0
 10
199.605591
 20
292.130414
 30
0.0
 10
199.385237
 20
292.164770
 30
0.0
 11
199.385237
 21
292.164770
 31
0.0
 11
198.754340
 21
291.994109
 31
0.0
 11
198.305901
 21
291.545670
 31
0.0
 11
198.135240
 21
290.914772
 31
0.0
 11
198.305901
 21
290.283875
 31
0.0
 11
198.754340
 21
289.835436
 31
0.0
 11
199.385237
 21
289.664775
 31
0.0
 11
200.016135
 21
289.835436
 31
0.0
 11
200.464574
 21
290.283875
 31
0.0
 11
200.635235
 21
290.914772
 31
0.0
 11
200.464574
 21
291.545670
 31
0.0
 11
200.016135
 21
291.994109
 31
0.0
 11
199.385237
 21
292.164770
 31
0.0
  0
SPLINE
  5
109
100
AcDbEntity
  8
Goal_Parts_v0
 62
7
100
AcDbSpline
 70
0
 71
3
 72
19
 73
15
 74
13
 40
0.000000
 40
0.000000
 40
0.000000
 40
0.000000
 40
0.653573
 40
1.287760
 40
1.941333
 40
2.594906
 40
3.229094
 40
3.882666
 40
4.536239
 40
5.170427
 40
5.823999
 40
6.477572
 40
7.111760
 40
7.765332
 40
7.765332
 40
7.765332
 40
7.765332
 10
349.384937
 20
352.165285
 30
0.0
 10
349.164584
 20
352.130929
 30
0.0
 10
348.730411
 20
352.063236
 30
0.0
 10
348.252423
 20
351.565591
 30
0.0
 10
348.075314
 20
350.916435
 30
0.0
 10
348.252423
 20
350.260463
 30
0.0
 10
348.730411
 20
349.782860
 30
0.0
 10
349.384938
 20
349.605620
 30
0.0
 10
350.039464
 20
349.782860
 30
0.0
 10
350.517452
 20
350.260463
 30
0.0
 10
350.694561
 20
350.916435
 30
0.0
 10
350.517452
 20
351.565591
 30
0.0
 10
350.039464
 20
352.063236
 30
0.0
 10
349.605291
 20
352.130929
 30
0.0
 10
349.384937
 20
352.165285
 30
0.0
 11
349.384937
 21
352.165285
 31
0.0
 11
348.754040
 21
351.994624
 31
0.0
 11
348.305601
 21
351.546185
 31
0.0
 11
348.134940
 21
350.915287
 31
0.0
 11
348.305601
 21
350.284390
 31
0.0
 11
348.754040
 21
349.835951
 31
0.0
 11
349.384937
 21
349.665290
 31
0.0
 11
350.015835
 21
349.835951
 31
0.0
 11
350.464274
 21
350.284390
 31
0.0
 11
350.634935
 21
350.915287
 31
0.0
 11
350.464274
 21
351.546185
 31
0.0
 11
350.015835
 21
351.994624
 31
0.0
 11
349.384937
 21
352.165285
 31
0.0
  0
SPLINE
  5
10a
100
AcDbEntity
  8
Goal_Parts_v0
 62
7
100
AcDbSpline
 70
0
 71
3
 72
19
 73
15
 74
13
 40
0.000000
 40
0.000000
 40
0.000000
 40
0.000000
 40
0.653573
 40
1.287760
 40
1.941333
 40
2.594906
 40
3.229094
 40
3.882666
 40
4.536239
 40
5.170427
 40
5.823999
 40
6.477572
 40
7.111760
 40
7.765332
 40
7.765332
 40
7.765332
 40
7.765332
 10
414.668652
 20
239.741710
 30
0.0
 10
414.448299
 20
239.707354
 30
0.0
 10
414.014126
 20
239.639661
 30
0.0
 10
413.536138
 20
239.142016
 30
0.0
 10
413.359029
 20
238.492860
 30
0.0
 10
413.536138
 20
237.836888
 30
0.0
 10
414.014126
 20
237.359285
 30
0.0
 10
414.668652
 20
237.182045
 30
0.0
 10
415.323179
 20
237.359285
 30
0.0
 10
415.801167
 20
237.836888
 30
0.0
 10
415.978276
 20
238.492860
 30
0.0
 10
415.801167
 20
239.142016
 30
0.0
 10
415.323179
 20
239.639661
 30
0.0
 10
414.889006
 20
239.707354
 30
0.0
 10
414.668652
 20
239.741710
 30
0.0
 11
414.668652
 21
239.741710
 31
0.0
 11
414.037755
 21
239.571049
 31
0.0
 11
413.589316
 21
239.122610
 31
0.0
 11
413.418655
 21
238.491712
 31
0.0
 11
413.589316
 21
237.860815
 31
0.0
 11
414.037755
 21
237.412376
 31
0.0
 11
414.668652
 21
237.241715
 31
0.0
 11
415.299550
 21
237.412376
 31
0.0
 11
415.747989
 21
237.860815
 31
0.0
 11
415.918650
 21
238.491712
 31
0.0
 11
415.747989
 21
239.122610
 31
0.0
 11
415.299550
 21
239.571049
 31
0.0
 11
414.668652
 21
239.741710
 31
0.0
  0
SPLINE
  5
10b
100
AcDbEntity
  8
Goal_Parts_v0
 62
7
100
AcDbSpline
 70
0
 71
3
 72
19
 73
15
 74
13
 40
0.000000
 40
0.000000
 40
0.000000
 40
0.000000
 40
0.784387
 40
1.545509
 40
2.329896
 40
3.114282
 40
3.875404
 40
4.659791
 40
5.444178
 40
6.205300
 40
6.989687
 40
7.774073
 40
8.535195
 40
9.319582
 40
9.319582
 40
9.319582
 40
9.319582
 10
144.966373
 20
237.415070
 30
0.0
 10
144.701914
 20
237.373838
 30
0.0
 10
144.180841
 20
237.292596
 30
0.0
 10
143.607183
 20
236.695346
 30
0.0
 10
143.394625
 20
235.916259
 30
0.0
 10
143.607183
 20
235.128993
 30
0.0
 10
144.180841
 20
234.555797
 30
0.0
 10
144.966373
 20
234.343082
 30
0.0
 10
145.751904
 20
234.555797
 30
0.0
 10
146.325562
 20
235.128993
 30
0.0
 10
146.538120
 20
235.916259
 30
0.0
 10
146.325562
 20
236.695346
 30
0.0
 10
145.751904
 20
237.292596
 30
0.0
 10
145.230831
 20
237.373838
 30
0.0
 10
144.966373
 20
237.415070
 30
0.0
 11
144.966373
 21
237.415070
 31
0.0
 11
144.209199
 21
237.210250
 31
0.0
 11
143.671005
 21
236.672056
 31
0.0
 11
143.466185
 21
235.914882
 31
0.0
 11
143.671005
 21
235.157709
 31
0.0
 11
144.209199
 21
234.619515
 31
0.0
 11
144.966373
 21
234.414695
 31
0.0
 11
145.723546
 21
234.619515
 31
0.0
 11
146.261740
 21
235.157709
 31
0.0
 11
146.466560
 21
235.914882
 31
0.0
 11
146.261740
 21
236.672056
 31
0.0
 11
145.723546
 21
237.210250
 31
0.0
 11
144.966373
 21
237.415070
 31
0.0
  0
SPLINE
  5
10c
100
AcDbEntity
  8
Goal_Parts_v0
 62
7
100
AcDbSpline
 70
0
 71
3
 72
19
 73
15
 74
13
 40
0.000000
 40
0.000000
 40
0.000000
 40
0.000000
 40
0.784387
 40
1.545509
 40
2.329896
 40
3.114282
 40
3.875404
 40
4.659791
 40
5.444178
 40
6.205300
 40
6.989687
 40
7.774073
 40
8.535195
 40
9.319582
 40
9.319582
 40
9.319582
 40
9.319582
 10
120.965913
 20
237.415070
 30
0.0
 10
120.701454
 20
237.373838
 30
0.0
 10
120.180381
 20
237.292596
 30
0.0
 10
119.606723
 20
236.695346
 30
0.0
 10
119.394165
 20
235.916259
 30
0.0
 10
119.606723
 20
235.128993
 30
0.0
 10
120.180381
 20
234.555797
 30
0.0
 10
120.965913
 20
234.343082
 30
0.0
 10
121.751444
 20
234.555797
 30
0.0
 10
122.325102
 20
235.128993
 30
0.0
 10
122.537660
 20
235.916259
 30
0.0
 10
122.325102
 20
236.695346
 30
0.0
 10
121.751444
 20
237.292596
 30
0.0
 10
121.230371
 20
237.373838
 30
0.0
 10
120.965913
 20
237.415070
 30
0.0
 11
120.965913
 21
237.415070
 31
0.0
 11
120.208739
 21
237.210250
 31
0.0
 11
119.670545
 21
236.672056
 31
0.0
 11
119.465725
 21
235.914882
 31
0.0
 11
119.670545
 21
235.157709
 31
0.0
 11
120.208739
 21
234.619515
 31
0.0
 11
120.965913
 21
234.414695
 31
0.0
 11
121.723086
 21
234.619515
 31
0.0
 11
122.261280
 21
235.157709
 31
0.0
 11
122.466100
 21
235.914882
 31
0.0
 11
122.261280
 21
236.672056
 31
0.0
 11
121.723086
 21
237.210250
 31
0.0
 11
120.965913
 21
237.415070
 31
0.0
  0
LINE
  5
10d
100
AcDbEntity
  8
Goal_Parts_v0
 62
7
100
AcDbLine
 10
458.803375
 20
355.914960
 30
0.0
 11
119.966105
 21
355.914960
 31
0.0
  0
SPLINE
  5
10e
100
AcDbEntity
  8
Goal_Parts_v0
 62
7
100
AcDbSpline
 70
0
 71
3
 72
10
 73
6
 74
4
 40
0.000000
 40
0.000000
 40
0.000000
 40
0.000000
 40
2.614456
 40
5.151369
 40
7.765825
 40
7.765825
 40
7.765825
 40
7.765825
 10
463.804000
 20
350.915287
 30
0.0
 10
463.666466
 20
351.791471
 30
0.0
 10
463.395476
 20
353.517849
 30
0.0
 10
461.406254
 20
355.507071
 30
0.0
 10
459.679876
 20
355.778061
 30
0.0
 10
458.803692
 20
355.915595
 30
0.0
 11
463.804000
 21
350.915287
 31
0.0
 11
463.121311
 21
353.439038
 31
0.0
 11
461.327443
 21
355.232906
 31
0.0
 11
458.803692
 21
355.915595
 31
0.0
  0
SPLINE
  5
10f
100
AcDbEntity
  8
Goal_Parts_v0
 62
7
100
AcDbSpline
 70
0
 71
3
 72
10
 73
6
 74
4
 40
0.000000
 40
0.000000
 40
0.000000
 40
0.000000
 40
2.614456
 40
5.151369
 40
7.765825
 40
7.765825
 40
7.765825
 40
7.765825
 10
119.966422
 20
355.915595
 30
0.0
 10
119.090239
 20
355.778061
 30
0.0
 10
117.363861
 20
355.507071
 30
0.0
 10
115.374639
 20
353.517849
 30
0.0
 10
115.103649
 20
351.791471
 30
0.0
 10
114.966115
 20
350.915287
 30
0.0
 11
119.966422
 21
355.915595
 31
0.0
 11
117.442672
 21
355.232906
 31
0.0
 11
115.648804
 21
353.439038
 31
0.0
 11
114.966115
 21
350.915287
 31
0.0
  0
SPLINE
  5
110
100
AcDbEntity
  8
Goal_Parts_v0
 62
7
100
AcDbSpline
 70
0
 71
3
 72
19
 73
15
 74
13
 40
0.000000
 40
0.000000
 40
0.000000
 40
0.000000
 40
0.784387
 40
1.545509
 40
2.329896
 40
3.114282
 40
3.875404
 40
4.659791
 40
5.444178
 40
6.205300
 40
6.989687
 40
7.774073
 40
8.535195
 40
9.319582
 40
9.319582
 40
9.319582
 40
9.319582
 10
209.385217
 20
282.414980
 30
0.0
 10
209.120759
 20
282.373748
 30
0.0
 10
208.599686
 20
282.292506
 30
0.0
 10
208.026028
 20
281.695256
 30
0.0
 10
207.813470
 20
280.916169
 30
0.0
 10
208.026028
 20
280.128903
 30
0.0
 10
208.599686
 20
279.555707
 30
0.0
 10
209.385218
 20
279.342992
 30
0.0
 10
210.170749
 20
279.555707
 30
0.0
 10
210.744407
 20
280.128903
 30
0.0
 10
210.956965
 20
280.916169
 30
0.0
 10
210.744407
 20
281.695256
 30
0.0
 10
210.170749
 20
282.292506
 30
0.0
 10
209.649676
 20
282.373748
 30
0.0
 10
209.385217
 20
282.414980
 30
0.0
 11
209.385217
 21
282.414980
 31
0.0
 11
208.628044
 21
282.210160
 31
0.0
 11
208.089850
 21
281.671966
 31
0.0
 11
207.885030
 21
280.914792
 31
0.0
 11
208.089850
 21
280.157619
 31
0.0
 11
208.628044
 21
279.619425
 31
0.0
 11
209.385217
 21
279.414605
 31
0.0
 11
210.142391
 21
279.619425
 31
0.0
 11
210.680585
 21
280.157619
 31
0.0
 11
210.885405
 21
280.914792
 31
0.0
 11
210.680585
 21
281.671966
 31
0.0
 11
210.142391
 21
282.210160
 31
0.0
 11
209.385217
 21
282.414980
 31
0.0
  0
SPLINE
  5
111
100
AcDbEntity
  8
Goal_Parts_v0
 62
7
100
AcDbSpline
 70
0
 71
3
 72
19
 73
15
 74
13
 40
0.000000
 40
0.000000
 40
0.000000
 40
0.000000
 40
0.784387
 40
1.545509
 40
2.329896
 40
3.114282
 40
3.875404
 40
4.659791
 40
5.444178
 40
6.205300
 40
6.989687
 40
7.774073
 40
8.535195
 40
9.319582
 40
9.319582
 40
9.319582
 40
9.319582
 10
349.384937
 20
342.415495
 30
0.0
 10
349.120479
 20
342.374263
 30
0.0
 10
348.599406
 20
342.293021
 30
0.0
 10
348.025748
 20
341.695771
 30
0.0
 10
347.813190
 20
340.916684
 30
0.0
 10
348.025748
 20
340.129418
 30
0.0
 10
348.599406
 20
339.556222
 30
0.0
 10
349.384938
 20
339.343507
 30
0.0
 10
350.170469
 20
339.556222
 30
0.0
 10
350.744127
 20
340.129418
 30
0.0
 10
350.956685
 20
340.916684
 30
0.0
 10
350.744127
 20
341.695771
 30
0.0
 10
350.170469
 20
342.293021
 30
0.0
 10
349.649396
 20
342.374263
 30
0.0
 10
349.384937
 20
342.415495
 30
0.0
 11
349.384937
 21
342.415495
 31
0.0
 11
348.627764
 21
342.210675
 31
0.0
 11
348.089570
 21
341.672481
 31
0.0
 11
347.884750
 21
340.915307
 31
0.0
 11
348.089570
 21
340.158134
 31
0.0
 11
348.627764
 21
339.619940
 31
0.0
 11
349.384937
 21
339.415120
 31
0.0
 11
350.142111
 21
339.619940
 31
0.0
 11
350.680305
 21
340.158134
 31
0.0
 11
350.885125
 21
340.915307
 31
0.0
 11
350.680305
 21
341.672481
 31
0.0
 11
350.142111
 21
342.210675
 31
0.0
 11
349.384937
 21
342.415495
 31
0.0
  0
SPLINE
  5
112
100
AcDbEntity
  8
Goal_Parts_v0
 62
7
100
AcDbSpline
 70
0
 71
3
 72
19
 73
15
 74
13
 40
0.000000
 40
0.000000
 40
0.000000
 40
0.000000
 40
0.784387
 40
1.545509
 40
2.329896
 40
3.114282
 40
3.875404
 40
4.659791
 40
5.444178
 40
6.205300
 40
6.989687
 40
7.774073
 40
8.535195
 40
9.319582
 40
9.319582
 40
9.319582
 40
9.319582
 10
289.385057
 20
342.415495
 30
0.0
 10
289.120599
 20
342.374263
 30
0.0
 10
288.599526
 20
342.293021
 30
0.0
 10
288.025868
 20
341.695771
 30
0.0
 10
287.813310
 20
340.916684
 30
0.0
 10
288.025868
 20
340.129418
 30
0.0
 10
288.599526
 20
339.556222
 30
0.0
 10
289.385058
 20
339.343507
 30
0.0
 10
290.170589
 20
339.556222
 30
0.0
 10
290.744247
 20
340.129418
 30
0.0
 10
290.956805
 20
340.916684
 30
0.0
 10
290.744247
 20
341.695771
 30
0.0
 10
290.170589
 20
342.293021
 30
0.0
 10
289.649516
 20
342.374263
 30
0.0
 10
289.385057
 20
342.415495
 30
0.0
 11
289.385057
 21
342.415495
 31
0.0
 11
288.627884
 21
342.210675
 31
0.0
 11
288.089690
 21
341.672481
 31
0.0
 11
287.884870
 21
340.915307
 31
0.0
 11
288.089690
 21
340.158134
 31
0.0
 11
288.627884
 21
339.619940
 31
0.0
 11
289.385057
 21
339.415120
 31
0.0
 11
290.142231
 21
339.619940
 31
0.0
 11
290.680425
 21
340.158134
 31
0.0
 11
290.885245
 21
340.915307
 31
0.0
 11
290.680425
 21
341.672481
 31
0.0
 11
290.142231
 21
342.210675
 31
0.0
 11
289.385057
 21
342.415495
 31
0.0
  0
SPLINE
  5
113
100
AcDbEntity
  8
Goal_Parts_v0
 62
7
100
AcDbSpline
 70
0
 71
3
 72
19
 73
15
 74
13
 40
0.000000
 40
0.000000
 40
0.000000
 40
0.000000
 40
0.784387
 40
1.545509
 40
2.329896
 40
3.114282
 40
3.875404
 40
4.659791
 40
5.444178
 40
6.205300
 40
6.989687
 40
7.774073
 40
8.535195
 40
9.319582
 40
9.319582
 40
9.319582
 40
9.319582
 10
209.385217
 20
332.415515
 30
0.0
 10
209.120759
 20
332.374283
 30
0.0
 10
208.599686
 20
332.293041
 30
0.0
 10
208.026028
 20
331.695791
 30
0.0
 10
207.813470
 20
330.916704
 30
0.0
 10
208.026028
 20
330.129438
 30
0.0
 10
208.599686
 20
329.556242
 30
0.0
 10
209.385217
 20
329.343527
 30
0.0
 10
210.170749
 20
329.556242
 30
0.0
 10
210.744407
 20
330.129438
 30
0.0
 10
210.956965
 20
330.916704
 30
0.0
 10
210.744407
 20
331.695791
 30
0.0
 10
210.170749
 20
332.293041
 30
0.0
 10
209.649676
 20
332.374283
 30
0.0
 10
209.385217
 20
332.415515
 30
0.0
 11
209.385217
 21
332.415515
 31
0.0
 11
208.628044
 21
332.210695
 31
0.0
 11
208.089850
 21
331.672501
 31
0.0
 11
207.885030
 21
330.915327
 31
0.0
 11
208.089850
 21
330.158154
 31
0.0
 11
208.628044
 21
329.619960
 31
0.0
 11
209.385217
 21
329.415140
 31
0.0
 11
210.142391
 21
329.619960
 31
0.0
 11
210.680585
 21
330.158154
 31
0.0
 11
210.885405
 21
330.915327
 31
0.0
 11
210.680585
 21
331.672501
 31
0.0
 11
210.142391
 21
332.210695
 31
0.0
 11
209.385217
 21
332.415515
 31
0.0
  0
SPLINE
  5
114
100
AcDbEntity
  8
Goal_Parts_v0
 62
7
100
AcDbSpline
 70
0
 71
3
 72
19
 73
15
 74
13
 40
0.000000
 40
0.000000
 40
0.000000
 40
0.000000
 40
0.784387
 40
1.545509
 40
2.329896
 40
3.114282
 40
3.875404
 40
4.659791
 40
5.444178
 40
6.205300
 40
6.989687
 40
7.774073
 40
8.535195
 40
9.319582
 40
9.319582
 40
9.319582
 40
9.319582
 10
369.384897
 20
332.415515
 30
0.0
 10
369.120439
 20
332.374283
 30
0.0
 10
368.599366
 20
332.293041
 30
0.0
 10
368.025708
 20
331.695791
 30
0.0
 10
367.813150
 20
330.916704
 30
0.0
 10
368.025708
 20
330.129438
 30
0.0
 10
368.599366
 20
329.556242
 30
0.0
 10
369.384897
 20
329.343527
 30
0.0
 10
370.170429
 20
329.556242
 30
0.0
 10
370.744087
 20
330.129438
 30
0.0
 10
370.956645
 20
330.916704
 30
0.0
 10
370.744087
 20
331.695791
 30
0.0
 10
370.170429
 20
332.293041
 30
0.0
 10
369.649356
 20
332.374283
 30
0.0
 10
369.384897
 20
332.415515
 30
0.0
 11
369.384897
 21
332.415515
 31
0.0
 11
368.627724
 21
332.210695
 31
0.0
 11
368.089530
 21
331.672501
 31
0.0
 11
367.884710
 21
330.915327
 31
0.0
 11
368.089530
 21
330.158154
 31
0.0
 11
368.627724
 21
329.619960
 31
0.0
 11
369.384897
 21
329.415140
 31
0.0
 11
370.142071
 21
329.619960
 31
0.0
 11
370.680265
 21
330.158154
 31
0.0
 11
370.885085
 21
330.915327
 31
0.0
 11
370.680265
 21
331.672501
 31
0.0
 11
370.142071
 21
332.210695
 31
0.0
 11
369.384897
 21
332.415515
 31
0.0
  0
SPLINE
  5
115
100
AcDbEntity
  8
Goal_Parts_v0
 62
7
100
AcDbSpline
 70
0
 71
3
 72
19
 73
15
 74
13
 40
0.000000
 40
0.000000
 40
0.000000
 40
0.000000
 40
0.784387
 40
1.545509
 40
2.329896
 40
3.114282
 40
3.875404
 40
4.659791
 40
5.444178
 40
6.205300
 40
6.989687
 40
7.774073
 40
8.535195
 40
9.319582
 40
9.319582
 40
9.319582
 40
9.319582
 10
229.385177
 20
342.415495
 30
0.0
 10
229.120719
 20
342.374263
 30
0.0
 10
228.599646
 20
342.293021
 30
0.0
 10
228.025988
 20
341.695771
 30
0.0
 10
227.813430
 20
340.916684
 30
0.0
 10
228.025988
 20
340.129418
 30
0.0
 10
228.599646
 20
339.556222
 30
0.0
 10
229.385177
 20
339.343507
 30
0.0
 10
230.170709
 20
339.556222
 30
0.0
 10
230.744367
 20
340.129418
 30
0.0
 10
230.956925
 20
340.916684
 30
0.0
 10
230.744367
 20
341.695771
 30
0.0
 10
230.170709
 20
342.293021
 30
0.0
 10
229.649636
 20
342.374263
 30
0.0
 10
229.385177
 20
342.415495
 30
0.0
 11
229.385177
 21
342.415495
 31
0.0
 11
228.628004
 21
342.210675
 31
0.0
 11
228.089810
 21
341.672481
 31
0.0
 11
227.884990
 21
340.915307
 31
0.0
 11
228.089810
 21
340.158134
 31
0.0
 11
228.628004
 21
339.619940
 31
0.0
 11
229.385177
 21
339.415120
 31
0.0
 11
230.142351
 21
339.619940
 31
0.0
 11
230.680545
 21
340.158134
 31
0.0
 11
230.885365
 21
340.915307
 31
0.0
 11
230.680545
 21
341.672481
 31
0.0
 11
230.142351
 21
342.210675
 31
0.0
 11
229.385177
 21
342.415495
 31
0.0
  0
LINE
  5
116
100
AcDbEntity
  8
Goal_Parts_v0
 62
7
100
AcDbLine
 10
433.803425
 20
221.914085
 30
0.0
 11
428.803435
 21
221.914085
 31
0.0
  0
LINE
  5
117
100
AcDbEntity
  8
Goal_Parts_v0
 62
7
100
AcDbLine
 10
428.803435
 20
221.914085
 30
0.0
 11
428.803435
 21
225.913950
 31
0.0
  0
LINE
  5
118
100
AcDbEntity
  8
Goal_Parts_v0
 62
7
100
AcDbLine
 10
428.803435
 20
225.913950
 30
0.0
 11
448.803395
 21
225.913950
 31
0.0
  0
LINE
  5
119
100
AcDbEntity
  8
Goal_Parts_v0
 62
7
100
AcDbLine
 10
448.803395
 20
225.913950
 30
0.0
 11
448.803395
 21
230.913940
 31
0.0
  0
LINE
  5
11a
100
AcDbEntity
  8
Goal_Parts_v0
 62
7
100
AcDbLine
 10
448.803395
 20
230.913940
 30
0.0
 11
463.803365
 21
230.913940
 31
0.0
  0
SPLINE
  5
11b
100
AcDbEntity
  8
Goal_Parts_v0
 62
7
100
AcDbSpline
 70
0
 71
3
 72
19
 73
15
 74
13
 40
0.000000
 40
0.000000
 40
0.000000
 40
0.000000
 40
0.784387
 40
1.545509
 40
2.329896
 40
3.114282
 40
3.875404
 40
4.659791
 40
5.444178
 40
6.205300
 40
6.989687
 40
7.774073
 40
8.535195
 40
9.319582
 40
9.319582
 40
9.319582
 40
9.319582
 10
369.384897
 20
282.414980
 30
0.0
 10
369.120439
 20
282.373748
 30
0.0
 10
368.599366
 20
282.292506
 30
0.0
 10
368.025708
 20
281.695256
 30
0.0
 10
367.813150
 20
280.916169
 30
0.0
 10
368.025708
 20
280.128903
 30
0.0
 10
368.599366
 20
279.555707
 30
0.0
 10
369.384897
 20
279.342992
 30
0.0
 10
370.170429
 20
279.555707
 30
0.0
 10
370.744087
 20
280.128903
 30
0.0
 10
370.956645
 20
280.916169
 30
0.0
 10
370.744087
 20
281.695256
 30
0.0
 10
370.170429
 20
282.292506
 30
0.0
 10
369.649356
 20
282.373748
 30
0.0
 10
369.384897
 20
282.414980
 30
0.0
 11
369.384897
 21
282.414980
 31
0.0
 11
368.627724
 21
282.210160
 31
0.0
 11
368.089530
 21
281.671966
 31
0.0
 11
367.884710
 21
280.914792
 31
0.0
 11
368.089530
 21
280.157619
 31
0.0
 11
368.627724
 21
279.619425
 31
0.0
 11
369.384897
 21
279.414605
 31
0.0
 11
370.142071
 21
279.619425
 31
0.0
 11
370.680265
 21
280.157619
 31
0.0
 11
370.885085
 21
280.914792
 31
0.0
 11
370.680265
 21
281.671966
 31
0.0
 11
370.142071
 21
282.210160
 31
0.0
 11
369.384897
 21
282.414980
 31
0.0
  0
LINE
  5
11c
100
AcDbEntity
  8
Goal_Parts_v0
 62
7
100
AcDbLine
 10
155.239085
 20
216.649935
 30
0.0
 11
214.384890
 21
275.914485
 31
0.0
  0
LINE
  5
11d
100
AcDbEntity
  8
Goal_Parts_v0
 62
7
100
AcDbLine
 10
214.384890
 20
275.914485
 30
0.0
 11
214.384890
 21
335.915000
 31
0.0
  0
LINE
  5
11e
100
AcDbEntity
  8
Goal_Parts_v0
 62
7
100
AcDbLine
 10
214.384890
 20
335.915000
 30
0.0
 11
364.384590
 21
335.915000
 31
0.0
  0
LINE
  5
11f
100
AcDbEntity
  8
Goal_Parts_v0
 62
7
100
AcDbLine
 10
364.384590
 20
335.915000
 30
0.0
 11
364.384590
 21
275.914485
 31
0.0
  0
LINE
  5
120
100
AcDbEntity
  8
Goal_Parts_v0
 62
7
100
AcDbLine
 10
364.384590
 20
275.914485
 30
0.0
 11
423.530395
 21
216.649935
 31
0.0
  0
SPLINE
  5
121
100
AcDbEntity
  8
Goal_Parts_v0
 62
7
100
AcDbSpline
 70
0
 71
3
 72
13
 73
9
 74
7
 40
0.000000
 40
0.000000
 40
0.000000
 40
0.000000
 40
2.544461
 40
5.037704
 40
7.582165
 40
10.126627
 40
12.619870
 40
15.164331
 40
15.164331
 40
15.164331
 40
15.164331
 10
423.531461
 20
216.649659
 30
0.0
 10
424.209943
 20
216.119606
 30
0.0
 10
425.553252
 20
215.070170
 30
0.0
 10
428.163966
 20
214.708144
 30
0.0
 10
430.671603
 20
215.372256
 30
0.0
 10
432.675006
 20
217.020184
 30
0.0
 10
433.905572
 20
219.350978
 30
0.0
 10
433.838022
 20
221.054278
 30
0.0
 10
433.803904
 20
221.914587
 30
0.0
 11
423.531461
 21
216.649659
 31
0.0
 11
425.666731
 21
215.265858
 31
0.0
 11
428.129555
 21
214.877587
 31
0.0
 11
430.586997
 21
215.537333
 31
0.0
 11
432.557545
 21
217.147061
 31
0.0
 11
433.680447
 21
219.373122
 31
0.0
 11
433.803904
 21
221.914587
 31
0.0
  0
LINE
  5
122
100
AcDbEntity
  8
Goal_Parts_v0
 62
7
100
AcDbLine
 10
114.966115
 20
350.914970
 30
0.0
 11
114.966115
 21
230.913940
 31
0.0
  0
LINE
  5
123
100
AcDbEntity
  8
Goal_Parts_v0
 62
7
100
AcDbLine
 10
114.966115
 20
230.913940
 30
0.0
 11
129.966085
 21
230.913940
 31
0.0
  0
LINE
  5
124
100
AcDbEntity
  8
Goal_Parts_v0
 62
7
100
AcDbLine
 10
129.966085
 20
230.913940
 30
0.0
 11
129.966085
 21
225.913950
 31
0.0
  0
LINE
  5
125
100
AcDbEntity
  8
Goal_Parts_v0
 62
7
100
AcDbLine
 10
129.966085
 20
225.913950
 30
0.0
 11
149.966045
 21
225.913950
 31
0.0
  0
LINE
  5
126
100
AcDbEntity
  8
Goal_Parts_v0
 62
7
100
AcDbLine
 10
149.966045
 20
225.913950
 30
0.0
 11
149.966045
 21
221.914085
 31
0.0
  0
LINE
  5
127
100
AcDbEntity
  8
Goal_Parts_v0
 62
7
100
AcDbLine
 10
149.966045
 20
221.914085
 30
0.0
 11
144.966055
 21
221.914085
 31
0.0
  0
LINE
  5
128
100
AcDbEntity
  8
Goal_Parts_v0
 62
7
100
AcDbLine
 10
463.803365
 20
230.913940
 30
0.0
 11
463.803365
 21
350.914970
 31
0.0
  0
SPLINE
  5
129
100
AcDbEntity
  8
Goal_Parts_v0
 62
7
100
AcDbSpline
 70
0
 71
3
 72
13
 73
9
 74
7
 40
0.000000
 40
0.000000
 40
0.000000
 40
0.000000
 40
2.544457
 40
5.037694
 40
7.582151
 40
10.126608
 40
12.619845
 40
15.164302
 40
15.164302
 40
15.164302
 40
15.164302
 10
144.966124
 20
221.913985
 30
0.0
 10
144.932092
 20
221.053674
 30
0.0
 10
144.864714
 20
219.350371
 30
0.0
 10
146.095511
 20
217.019705
 30
0.0
 10
148.099075
 20
215.371981
 30
0.0
 10
150.606774
 20
214.708122
 30
0.0
 10
153.217447
 20
215.070409
 30
0.0
 10
154.560648
 20
216.119978
 30
0.0
 10
155.239076
 20
216.650098
 30
0.0
 11
144.966124
 21
221.913985
 31
0.0
 11
145.089836
 21
219.372537
 31
0.0
 11
146.212959
 21
217.146593
 31
0.0
 11
148.183665
 21
215.537066
 31
0.0
 11
150.641168
 21
214.877568
 31
0.0
 11
153.103949
 21
215.266086
 31
0.0
 11
155.239076
 21
216.650098
 31
0.0
  0
SPLINE
  5
12a
100
AcDbEntity
  8
Goal_Parts_v0
 62
7
100
AcDbSpline
 70
0
 71
3
 72
19
 73
15
 74
13
 40
0.000000
 40
0.000000
 40
0.000000
 40
0.000000
 40
0.653573
 40
1.287760
 40
1.941333
 40
2.594906
 40
3.229094
 40
3.882666
 40
4.536239
 40
5.170427
 40
5.823999
 40
6.477572
 40
7.111760
 40
7.765332
 40
7.765332
 40
7.765332
 40
7.765332
 10
719.384832
 20
292.164770
 30
0.0
 10
719.164479
 20
292.130414
 30
0.0
 10
718.730306
 20
292.062721
 30
0.0
 10
718.252318
 20
291.565076
 30
0.0
 10
718.075209
 20
290.915920
 30
0.0
 10
718.252318
 20
290.259948
 30
0.0
 10
718.730306
 20
289.782345
 30
0.0
 10
719.384832
 20
289.605105
 30
0.0
 10
720.039359
 20
289.782345
 30
0.0
 10
720.517347
 20
290.259948
 30
0.0
 10
720.694456
 20
290.915920
 30
0.0
 10
720.517347
 20
291.565076
 30
0.0
 10
720.039359
 20
292.062721
 30
0.0
 10
719.605186
 20
292.130414
 30
0.0
 10
719.384832
 20
292.164770
 30
0.0
 11
719.384832
 21
292.164770
 31
0.0
 11
718.753935
 21
291.994109
 31
0.0
 11
718.305496
 21
291.545670
 31
0.0
 11
718.134835
 21
290.914772
 31
0.0
 11
718.305496
 21
290.283875
 31
0.0
 11
718.753935
 21
289.835436
 31
0.0
 11
719.384832
 21
289.664775
 31
0.0
 11
720.015730
 21
289.835436
 31
0.0
 11
720.464169
 21
290.283875
 31
0.0
 11
720.634830
 21
290.914772
 31
0.0
 11
720.464169
 21
291.545670
 31
0.0
 11
720.015730
 21
291.994109
 31
0.0
 11
719.384832
 21
292.164770
 31
0.0
  0
SPLINE
  5
12b
100
AcDbEntity
  8
Goal_Parts_v0
 62
7
100
AcDbSpline
 70
0
 71
3
 72
19
 73
15
 74
13
 40
0.000000
 40
0.000000
 40
0.000000
 40
0.000000
 40
0.653573
 40
1.287760
 40
1.941333
 40
2.594906
 40
3.229094
 40
3.882666
 40
4.536239
 40
5.170427
 40
5.823999
 40
6.477572
 40
7.111760
 40
7.765332
 40
7.765332
 40
7.765332
 40
7.765332
 10
539.385192
 20
322.165345
 30
0.0
 10
539.164839
 20
322.130989
 30
0.0
 10
538.730666
 20
322.063296
 30
0.0
 10
538.252678
 20
321.565651
 30
0.0
 10
538.075569
 20
320.916495
 30
0.0
 10
538.252678
 20
320.260523
 30
0.0
 10
538.730666
 20
319.782920
 30
0.0
 10
539.385192
 20
319.605680
 30
0.0
 10
540.039719
 20
319.782920
 30
0.0
 10
540.517707
 20
320.260523
 30
0.0
 10
540.694816
 20
320.916495
 30
0.0
 10
540.517707
 20
321.565651
 30
0.0
 10
540.039719
 20
322.063296
 30
0.0
 10
539.605546
 20
322.130989
 30
0.0
 10
539.385192
 20
322.165345
 30
0.0
 11
539.385192
 21
322.165345
 31
0.0
 11
538.754295
 21
321.994684
 31
0.0
 11
538.305856
 21
321.546245
 31
0.0
 11
538.135195
 21
320.915347
 31
0.0
 11
538.305856
 21
320.284450
 31
0.0
 11
538.754295
 21
319.836011
 31
0.0
 11
539.385192
 21
319.665350
 31
0.0
 11
540.016090
 21
319.836011
 31
0.0
 11
540.464529
 21
320.284450
 31
0.0
 11
540.635190
 21
320.915347
 31
0.0
 11
540.464529
 21
321.546245
 31
0.0
 11
540.016090
 21
321.994684
 31
0.0
 11
539.385192
 21
322.165345
 31
0.0
  0
SPLINE
  5
12c
100
AcDbEntity
  8
Goal_Parts_v0
 62
7
100
AcDbSpline
 70
0
 71
3
 72
19
 73
15
 74
13
 40
0.000000
 40
0.000000
 40
0.000000
 40
0.000000
 40
0.653573
 40
1.287760
 40
1.941333
 40
2.594906
 40
3.229094
 40
3.882666
 40
4.536239
 40
5.170427
 40
5.823999
 40
6.477572
 40
7.111760
 40
7.765332
 40
7.765332
 40
7.765332
 40
7.765332
 10
539.385192
 20
292.164770
 30
0.0
 10
539.164839
 20
292.130414
 30
0.0
 10
538.730666
 20
292.062721
 30
0.0
 10
538.252678
 20
291.565076
 30
0.0
 10
538.075569
 20
290.915920
 30
0.0
 10
538.252678
 20
290.259948
 30
0.0
 10
538.730666
 20
289.782345
 30
0.0
 10
539.385192
 20
289.605105
 30
0.0
 10
540.039719
 20
289.782345
 30
0.0
 10
540.517707
 20
290.259948
 30
0.0
 10
540.694816
 20
290.915920
 30
0.0
 10
540.517707
 20
291.565076
 30
0.0
 10
540.039719
 20
292.062721
 30
0.0
 10
539.605546
 20
292.130414
 30
0.0
 10
539.385192
 20
292.164770
 30
0.0
 11
539.385192
 21
292.164770
 31
0.0
 11
538.754295
 21
291.994109
 31
0.0
 11
538.305856
 21
291.545670
 31
0.0
 11
538.135195
 21
290.914772
 31
0.0
 11
538.305856
 21
290.283875
 31
0.0
 11
538.754295
 21
289.835436
 31
0.0
 11
539.385192
 21
289.664775
 31
0.0
 11
540.016090
 21
289.835436
 31
0.0
 11
540.464529
 21
290.283875
 31
0.0
 11
540.635190
 21
290.914772
 31
0.0
 11
540.464529
 21
291.545670
 31
0.0
 11
540.016090
 21
291.994109
 31
0.0
 11
539.385192
 21
292.164770
 31
0.0
  0
SPLINE
  5
12d
100
AcDbEntity
  8
Goal_Parts_v0
 62
7
100
AcDbSpline
 70
0
 71
3
 72
19
 73
15
 74
13
 40
0.000000
 40
0.000000
 40
0.000000
 40
0.000000
 40
0.653573
 40
1.287760
 40
1.941333
 40
2.594906
 40
3.229094
 40
3.882666
 40
4.536239
 40
5.170427
 40
5.823999
 40
6.477572
 40
7.111760
 40
7.765332
 40
7.765332
 40
7.765332
 40
7.765332
 10
569.385132
 20
352.165285
 30
0.0
 10
569.164779
 20
352.130929
 30
0.0
 10
568.730606
 20
352.063236
 30
0.0
 10
568.252618
 20
351.565591
 30
0.0
 10
568.075509
 20
350.916435
 30
0.0
 10
568.252618
 20
350.260463
 30
0.0
 10
568.730606
 20
349.782860
 30
0.0
 10
569.385133
 20
349.605620
 30
0.0
 10
570.039659
 20
349.782860
 30
0.0
 10
570.517647
 20
350.260463
 30
0.0
 10
570.694756
 20
350.916435
 30
0.0
 10
570.517647
 20
351.565591
 30
0.0
 10
570.039659
 20
352.063236
 30
0.0
 10
569.605486
 20
352.130929
 30
0.0
 10
569.385132
 20
352.165285
 30
0.0
 11
569.385132
 21
352.165285
 31
0.0
 11
568.754235
 21
351.994624
 31
0.0
 11
568.305796
 21
351.546185
 31
0.0
 11
568.135135
 21
350.915287
 31
0.0
 11
568.305796
 21
350.284390
 31
0.0
 11
568.754235
 21
349.835951
 31
0.0
 11
569.385132
 21
349.665290
 31
0.0
 11
570.016030
 21
349.835951
 31
0.0
 11
570.464469
 21
350.284390
 31
0.0
 11
570.635130
 21
350.915287
 31
0.0
 11
570.464469
 21
351.546185
 31
0.0
 11
570.016030
 21
351.994624
 31
0.0
 11
569.385132
 21
352.165285
 31
0.0
  0
SPLINE
  5
12e
100
AcDbEntity
  8
Goal_Parts_v0
 62
7
100
AcDbSpline
 70
0
 71
3
 72
19
 73
15
 74
13
 40
0.000000
 40
0.000000
 40
0.000000
 40
0.000000
 40
0.653573
 40
1.287760
 40
1.941333
 40
2.594906
 40
3.229094
 40
3.882666
 40
4.536239
 40
5.170427
 40
5.823999
 40
6.477572
 40
7.111760
 40
7.765332
 40
7.765332
 40
7.765332
 40
7.765332
 10
754.668607
 20
239.741710
 30
0.0
 10
754.448254
 20
239.707354
 30
0.0
 10
754.014081
 20
239.639661
 30
0.0
 10
753.536093
 20
239.142016
 30
0.0
 10
753.358984
 20
238.492860
 30
0.0
 10
753.536093
 20
237.836888
 30
0.0
 10
754.014081
 20
237.359285
 30
0.0
 10
754.668607
 20
237.182045
 30
0.0
 10
755.323134
 20
237.359285
 30
0.0
 10
755.801122
 20
237.836888
 30
0.0
 10
755.978231
 20
238.492860
 30
0.0
 10
755.801122
 20
239.142016
 30
0.0
 10
755.323134
 20
239.639661
 30
0.0
 10
754.888961
 20
239.707354
 30
0.0
 10
754.668607
 20
239.741710
 30
0.0
 11
754.668607
 21
239.741710
 31
0.0
 11
754.037710
 21
239.571049
 31
0.0
 11
753.589271
 21
239.122610
 31
0.0
 11
753.418610
 21
238.491712
 31
0.0
 11
753.589271
 21
237.860815
 31
0.0
 11
754.037710
 21
237.412376
 31
0.0
 11
754.668607
 21
237.241715
 31
0.0
 11
755.299505
 21
237.412376
 31
0.0
 11
755.747944
 21
237.860815
 31
0.0
 11
755.918605
 21
238.491712
 31
0.0
 11
755.747944
 21
239.122610
 31
0.0
 11
755.299505
 21
239.571049
 31
0.0
 11
754.668607
 21
239.741710
 31
0.0
  0
SPLINE
  5
12f
100
AcDbEntity
  8
Goal_Parts_v0
 62
7
100
AcDbSpline
 70
0
 71
3
 72
19
 73
15
 74
13
 40
0.000000
 40
0.000000
 40
0.000000
 40
0.000000
 40
0.653573
 40
1.287760
 40
1.941333
 40
2.594906
 40
3.229094
 40
3.882666
 40
4.536239
 40
5.170427
 40
5.823999
 40
6.477572
 40
7.111760
 40
7.765332
 40
7.765332
 40
7.765332
 40
7.765332
 10
629.385012
 20
352.165285
 30
0.0
 10
629.164659
 20
352.130929
 30
0.0
 10
628.730486
 20
352.063236
 30
0.0
 10
628.252498
 20
351.565591
 30
0.0
 10
628.075389
 20
350.916435
 30
0.0
 10
628.252498
 20
350.260463
 30
0.0
 10
628.730486
 20
349.782860
 30
0.0
 10
629.385012
 20
349.605620
 30
0.0
 10
630.039539
 20
349.782860
 30
0.0
 10
630.517527
 20
350.260463
 30
0.0
 10
630.694636
 20
350.916435
 30
0.0
 10
630.517527
 20
351.565591
 30
0.0
 10
630.039539
 20
352.063236
 30
0.0
 10
629.605366
 20
352.130929
 30
0.0
 10
629.385012
 20
352.165285
 30
0.0
 11
629.385012
 21
352.165285
 31
0.0
 11
628.754115
 21
351.994624
 31
0.0
 11
628.305676
 21
351.546185
 31
0.0
 11
628.135015
 21
350.915287
 31
0.0
 11
628.305676
 21
350.284390
 31
0.0
 11
628.754115
 21
349.835951
 31
0.0
 11
629.385012
 21
349.665290
 31
0.0
 11
630.015910
 21
349.835951
 31
0.0
 11
630.464349
 21
350.284390
 31
0.0
 11
630.635010
 21
350.915287
 31
0.0
 11
630.464349
 21
351.546185
 31
0.0
 11
630.015910
 21
351.994624
 31
0.0
 11
629.385012
 21
352.165285
 31
0.0
  0
SPLINE
  5
130
100
AcDbEntity
  8
Goal_Parts_v0
 62
7
100
AcDbSpline
 70
0
 71
3
 72
19
 73
15
 74
13
 40
0.000000
 40
0.000000
 40
0.000000
 40
0.000000
 40
0.653573
 40
1.287760
 40
1.941333
 40
2.594906
 40
3.229094
 40
3.882666
 40
4.536239
 40
5.170427
 40
5.823999
 40
6.477572
 40
7.111760
 40
7.765332
 40
7.765332
 40
7.765332
 40
7.765332
 10
527.327812
 20
263.015730
 30
0.0
 10
527.107459
 20
262.981374
 30
0.0
 10
526.673286
 20
262.913681
 30
0.0
 10
526.195298
 20
262.416036
 30
0.0
 10
526.018189
 20
261.766880
 30
0.0
 10
526.195298
 20
261.110908
 30
0.0
 10
526.673286
 20
260.633305
 30
0.0
 10
527.327812
 20
260.456065
 30
0.0
 10
527.982339
 20
260.633305
 30
0.0
 10
528.460327
 20
261.110908
 30
0.0
 10
528.637436
 20
261.766880
 30
0.0
 10
528.460327
 20
262.416036
 30
0.0
 10
527.982339
 20
262.913681
 30
0.0
 10
527.548166
 20
262.981374
 30
0.0
 10
527.327812
 20
263.015730
 30
0.0
 11
527.327812
 21
263.015730
 31
0.0
 11
526.696915
 21
262.845069
 31
0.0
 11
526.248476
 21
262.396630
 31
0.0
 11
526.077815
 21
261.765732
 31
0.0
 11
526.248476
 21
261.134835
 31
0.0
 11
526.696915
 21
260.686396
 31
0.0
 11
527.327812
 21
260.515735
 31
0.0
 11
527.958710
 21
260.686396
 31
0.0
 11
528.407149
 21
261.134835
 31
0.0
 11
528.577810
 21
261.765732
 31
0.0
 11
528.407149
 21
262.396630
 31
0.0
 11
527.958710
 21
262.845069
 31
0.0
 11
527.327812
 21
263.015730
 31
0.0
  0
SPLINE
  5
131
100
AcDbEntity
  8
Goal_Parts_v0
 62
7
100
AcDbSpline
 70
0
 71
3
 72
19
 73
15
 74
13
 40
0.000000
 40
0.000000
 40
0.000000
 40
0.000000
 40
0.653573
 40
1.287760
 40
1.941333
 40
2.594906
 40
3.229094
 40
3.882666
 40
4.536239
 40
5.170427
 40
5.823999
 40
6.477572
 40
7.111760
 40
7.765332
 40
7.765332
 40
7.765332
 40
7.765332
 10
689.384892
 20
352.165285
 30
0.0
 10
689.164539
 20
352.130929
 30
0.0
 10
688.730366
 20
352.063236
 30
0.0
 10
688.252378
 20
351.565591
 30
0.0
 10
688.075269
 20
350.916435
 30
0.0
 10
688.252378
 20
350.260463
 30
0.0
 10
688.730366
 20
349.782860
 30
0.0
 10
689.384893
 20
349.605620
 30
0.0
 10
690.039419
 20
349.782860
 30
0.0
 10
690.517407
 20
350.260463
 30
0.0
 10
690.694516
 20
350.916435
 30
0.0
 10
690.517407
 20
351.565591
 30
0.0
 10
690.039419
 20
352.063236
 30
0.0
 10
689.605246
 20
352.130929
 30
0.0
 10
689.384892
 20
352.165285
 30
0.0
 11
689.384892
 21
352.165285
 31
0.0
 11
688.753995
 21
351.994624
 31
0.0
 11
688.305556
 21
351.546185
 31
0.0
 11
688.134895
 21
350.915287
 31
0.0
 11
688.305556
 21
350.284390
 31
0.0
 11
688.753995
 21
349.835951
 31
0.0
 11
689.384892
 21
349.665290
 31
0.0
 11
690.015790
 21
349.835951
 31
0.0
 11
690.464229
 21
350.284390
 31
0.0
 11
690.634890
 21
350.915287
 31
0.0
 11
690.464229
 21
351.546185
 31
0.0
 11
690.015790
 21
351.994624
 31
0.0
 11
689.384892
 21
352.165285
 31
0.0
  0
SPLINE
  5
132
100
AcDbEntity
  8
Goal_Parts_v0
 62
7
100
AcDbSpline
 70
0
 71
3
 72
19
 73
15
 74
13
 40
0.000000
 40
0.000000
 40
0.000000
 40
0.000000
 40
0.653573
 40
1.287760
 40
1.941333
 40
2.594906
 40
3.229094
 40
3.882666
 40
4.536239
 40
5.170427
 40
5.823999
 40
6.477572
 40
7.111760
 40
7.765332
 40
7.765332
 40
7.765332
 40
7.765332
 10
731.442212
 20
263.015730
 30
0.0
 10
731.221859
 20
262.981374
 30
0.0
 10
730.787686
 20
262.913681
 30
0.0
 10
730.309698
 20
262.416036
 30
0.0
 10
730.132589
 20
261.766880
 30
0.0
 10
730.309698
 20
261.110908
 30
0.0
 10
730.787686
 20
260.633305
 30
0.0
 10
731.442212
 20
260.456065
 30
0.0
 10
732.096739
 20
260.633305
 30
0.0
 10
732.574727
 20
261.110908
 30
0.0
 10
732.751836
 20
261.766880
 30
0.0
 10
732.574727
 20
262.416036
 30
0.0
 10
732.096739
 20
262.913681
 30
0.0
 10
731.662566
 20
262.981374
 30
0.0
 10
731.442212
 20
263.015730
 30
0.0
 11
731.442212
 21
263.015730
 31
0.0
 11
730.811315
 21
262.845069
 31
0.0
 11
730.362876
 21
262.396630
 31
0.0
 11
730.192215
 21
261.765732
 31
0.0
 11
730.362876
 21
261.134835
 31
0.0
 11
730.811315
 21
260.686396
 31
0.0
 11
731.442212
 21
260.515735
 31
0.0
 11
732.073110
 21
260.686396
 31
0.0
 11
732.521549
 21
261.134835
 31
0.0
 11
732.692210
 21
261.765732
 31
0.0
 11
732.521549
 21
262.396630
 31
0.0
 11
732.073110
 21
262.845069
 31
0.0
 11
731.442212
 21
263.015730
 31
0.0
  0
SPLINE
  5
133
100
AcDbEntity
  8
Goal_Parts_v0
 62
7
100
AcDbSpline
 70
0
 71
3
 72
19
 73
15
 74
13
 40
0.000000
 40
0.000000
 40
0.000000
 40
0.000000
 40
0.653573
 40
1.287760
 40
1.941333
 40
2.594906
 40
3.229094
 40
3.882666
 40
4.536239
 40
5.170427
 40
5.823999
 40
6.477572
 40
7.111760
 40
7.765332
 40
7.765332
 40
7.765332
 40
7.765332
 10
719.384832
 20
322.165345
 30
0.0
 10
719.164479
 20
322.130989
 30
0.0
 10
718.730306
 20
322.063296
 30
0.0
 10
718.252318
 20
321.565651
 30
0.0
 10
718.075209
 20
320.916495
 30
0.0
 10
718.252318
 20
320.260523
 30
0.0
 10
718.730306
 20
319.782920
 30
0.0
 10
719.384833
 20
319.605680
 30
0.0
 10
720.039359
 20
319.782920
 30
0.0
 10
720.517347
 20
320.260523
 30
0.0
 10
720.694456
 20
320.916495
 30
0.0
 10
720.517347
 20
321.565651
 30
0.0
 10
720.039359
 20
322.063296
 30
0.0
 10
719.605186
 20
322.130989
 30
0.0
 10
719.384832
 20
322.165345
 30
0.0
 11
719.384832
 21
322.165345
 31
0.0
 11
718.753935
 21
321.994684
 31
0.0
 11
718.305496
 21
321.546245
 31
0.0
 11
718.134835
 21
320.915347
 31
0.0
 11
718.305496
 21
320.284450
 31
0.0
 11
718.753935
 21
319.836011
 31
0.0
 11
719.384832
 21
319.665350
 31
0.0
 11
720.015730
 21
319.836011
 31
0.0
 11
720.464169
 21
320.284450
 31
0.0
 11
720.634830
 21
320.915347
 31
0.0
 11
720.464169
 21
321.546245
 31
0.0
 11
720.015730
 21
321.994684
 31
0.0
 11
719.384832
 21
322.165345
 31
0.0
  0
LINE
  5
134
100
AcDbEntity
  8
Goal_Parts_v0
 62
7
100
AcDbLine
 10
773.803380
 20
221.914085
 30
0.0
 11
768.803390
 21
221.914085
 31
0.0
  0
LINE
  5
135
100
AcDbEntity
  8
Goal_Parts_v0
 62
7
100
AcDbLine
 10
768.803390
 20
221.914085
 30
0.0
 11
768.803390
 21
231.406065
 31
0.0
  0
LINE
  5
136
100
AcDbEntity
  8
Goal_Parts_v0
 62
7
100
AcDbLine
 10
768.803390
 20
231.406065
 30
0.0
 11
724.384505
 21
275.914485
 31
0.0
  0
SPLINE
  5
137
100
AcDbEntity
  8
Goal_Parts_v0
 62
7
100
AcDbSpline
 70
0
 71
3
 72
19
 73
15
 74
13
 40
0.000000
 40
0.000000
 40
0.000000
 40
0.000000
 40
0.653573
 40
1.287760
 40
1.941333
 40
2.594906
 40
3.229094
 40
3.882666
 40
4.536239
 40
5.170427
 40
5.823999
 40
6.477572
 40
7.111760
 40
7.765332
 40
7.765332
 40
7.765332
 40
7.765332
 10
504.101417
 20
239.741710
 30
0.0
 10
503.881064
 20
239.707354
 30
0.0
 10
503.446891
 20
239.639661
 30
0.0
 10
502.968903
 20
239.142016
 30
0.0
 10
502.791794
 20
238.492860
 30
0.0
 10
502.968903
 20
237.836888
 30
0.0
 10
503.446891
 20
237.359285
 30
0.0
 10
504.101418
 20
237.182045
 30
0.0
 10
504.755944
 20
237.359285
 30
0.0
 10
505.233932
 20
237.836888
 30
0.0
 10
505.411041
 20
238.492860
 30
0.0
 10
505.233932
 20
239.142016
 30
0.0
 10
504.755944
 20
239.639661
 30
0.0
 10
504.321771
 20
239.707354
 30
0.0
 10
504.101417
 20
239.741710
 30
0.0
 11
504.101417
 21
239.741710
 31
0.0
 11
503.470520
 21
239.571049
 31
0.0
 11
503.022081
 21
239.122610
 31
0.0
 11
502.851420
 21
238.491712
 31
0.0
 11
503.022081
 21
237.860815
 31
0.0
 11
503.470520
 21
237.412376
 31
0.0
 11
504.101417
 21
237.241715
 31
0.0
 11
504.732315
 21
237.412376
 31
0.0
 11
505.180754
 21
237.860815
 31
0.0
 11
505.351415
 21
238.491712
 31
0.0
 11
505.180754
 21
239.122610
 31
0.0
 11
504.732315
 21
239.571049
 31
0.0
 11
504.101417
 21
239.741710
 31
0.0
  0
LINE
  5
138
100
AcDbEntity
  8
Goal_Parts_v0
 62
7
100
AcDbLine
 10
495.239040
 20
216.649935
 30
0.0
 11
554.384845
 21
275.914485
 31
0.0
  0
LINE
  5
139
100
AcDbEntity
  8
Goal_Parts_v0
 62
7
100
AcDbLine
 10
554.384845
 20
275.914485
 30
0.0
 11
554.384845
 21
335.915000
 31
0.0
  0
LINE
  5
13a
100
AcDbEntity
  8
Goal_Parts_v0
 62
7
100
AcDbLine
 10
554.384845
 20
335.915000
 30
0.0
 11
704.384545
 21
335.915000
 31
0.0
  0
LINE
  5
13b
100
AcDbEntity
  8
Goal_Parts_v0
 62
7
100
AcDbLine
 10
704.384545
 20
335.915000
 30
0.0
 11
704.384545
 21
275.914485
 31
0.0
  0
LINE
  5
13c
100
AcDbEntity
  8
Goal_Parts_v0
 62
7
100
AcDbLine
 10
704.384545
 20
275.914485
 30
0.0
 11
763.530350
 21
216.649935
 31
0.0
  0
SPLINE
  5
13d
100
AcDbEntity
  8
Goal_Parts_v0
 62
7
100
AcDbSpline
 70
0
 71
3
 72
13
 73
9
 74
7
 40
0.000000
 40
0.000000
 40
0.000000
 40
0.000000
 40
2.544461
 40
5.037704
 40
7.582165
 40
10.126627
 40
12.619870
 40
15.164331
 40
15.164331
 40
15.164331
 40
15.164331
 10
763.531416
 20
216.649659
 30
0.0
 10
764.209898
 20
216.119606
 30
0.0
 10
765.553207
 20
215.070170
 30
0.0
 10
768.163921
 20
214.708144
 30
0.0
 10
770.671558
 20
215.372256
 30
0.0
 10
772.674961
 20
217.020184
 30
0.0
 10
773.905527
 20
219.350978
 30
0.0
 10
773.837977
 20
221.054278
 30
0.0
 10
773.803859
 20
221.914587
 30
0.0
 11
763.531416
 21
216.649659
 31
0.0
 11
765.666686
 21
215.265858
 31
0.0
 11
768.129510
 21
214.877587
 31
0.0
 11
770.586952
 21
215.537333
 31
0.0
 11
772.557500
 21
217.147061
 31
0.0
 11
773.680402
 21
219.373122
 31
0.0
 11
773.803859
 21
221.914587
 31
0.0
  0
LINE
  5
13e
100
AcDbEntity
  8
Goal_Parts_v0
 62
7
100
AcDbLine
 10
534.384885
 20
335.915000
 30
0.0
 11
534.384885
 21
275.914485
 31
0.0
  0
LINE
  5
13f
100
AcDbEntity
  8
Goal_Parts_v0
 62
7
100
AcDbLine
 10
534.384885
 20
275.914485
 30
0.0
 11
489.966000
 21
231.406065
 31
0.0
  0
LINE
  5
140
100
AcDbEntity
  8
Goal_Parts_v0
 62
7
100
AcDbLine
 10
489.966000
 20
231.406065
 30
0.0
 11
489.966000
 21
221.914085
 31
0.0
  0
LINE
  5
141
100
AcDbEntity
  8
Goal_Parts_v0
 62
7
100
AcDbLine
 10
489.966000
 20
221.914085
 30
0.0
 11
484.966010
 21
221.914085
 31
0.0
  0
SPLINE
  5
142
100
AcDbEntity
  8
Goal_Parts_v0
 62
7
100
AcDbSpline
 70
0
 71
3
 72
13
 73
9
 74
7
 40
0.000000
 40
0.000000
 40
0.000000
 40
0.000000
 40
2.544457
 40
5.037694
 40
7.582151
 40
10.126608
 40
12.619845
 40
15.164302
 40
15.164302
 40
15.164302
 40
15.164302
 10
484.966079
 20
221.913985
 30
0.0
 10
484.932047
 20
221.053674
 30
0.0
 10
484.864669
 20
219.350371
 30
0.0
 10
486.095466
 20
217.019705
 30
0.0
 10
488.099030
 20
215.371981
 30
0.0
 10
490.606729
 20
214.708122
 30
0.0
 10
493.217402
 20
215.070409
 30
0.0
 10
494.560603
 20
216.119978
 30
0.0
 10
495.239031
 20
216.650098
 30
0.0
 11
484.966079
 21
221.913985
 31
0.0
 11
485.089791
 21
219.372537
 31
0.0
 11
486.212914
 21
217.146593
 31
0.0
 11
488.183620
 21
215.537066
 31
0.0
 11
490.641123
 21
214.877568
 31
0.0
 11
493.103904
 21
215.266086
 31
0.0
 11
495.239031
 21
216.650098
 31
0.0
  0
LINE
  5
143
100
AcDbEntity
  8
Goal_Parts_v0
 62
7
100
AcDbLine
 10
704.384545
 20
355.914960
 30
0.0
 11
554.384845
 21
355.914960
 31
0.0
  0
SPLINE
  5
144
100
AcDbEntity
  8
Goal_Parts_v0
 62
7
100
AcDbSpline
 70
0
 71
3
 72
10
 73
6
 74
4
 40
0.000000
 40
0.000000
 40
0.000000
 40
0.000000
 40
10.457328
 40
20.604494
 40
31.061822
 40
31.061822
 40
31.061822
 40
31.061822
 10
554.385162
 20
355.915595
 30
0.0
 10
550.880597
 20
355.365484
 30
0.0
 10
543.975411
 20
354.281578
 30
0.0
 10
536.018902
 20
346.325069
 30
0.0
 10
534.934996
 20
339.419883
 30
0.0
 10
534.384885
 20
335.915317
 30
0.0
 11
554.385162
 21
355.915595
 31
0.0
 11
544.290639
 21
353.184971
 31
0.0
 11
537.115509
 21
346.009841
 31
0.0
 11
534.384885
 21
335.915317
 31
0.0
  0
LINE
  5
145
100
AcDbEntity
  8
Goal_Parts_v0
 62
7
100
AcDbLine
 10
724.384505
 20
275.914485
 30
0.0
 11
724.384505
 21
335.915000
 31
0.0
  0
SPLINE
  5
146
100
AcDbEntity
  8
Goal_Parts_v0
 62
7
100
AcDbSpline
 70
0
 71
3
 72
10
 73
6
 74
4
 40
0.000000
 40
0.000000
 40
0.000000
 40
0.000000
 40
10.457328
 40
20.604494
 40
31.061822
 40
31.061822
 40
31.061822
 40
31.061822
 10
724.385140
 20
335.915317
 30
0.0
 10
723.835029
 20
339.419883
 30
0.0
 10
722.751123
 20
346.325069
 30
0.0
 10
714.794614
 20
354.281578
 30
0.0
 10
707.889428
 20
355.365484
 30
0.0
 10
704.384862
 20
355.915595
 30
0.0
 11
724.385140
 21
335.915317
 31
0.0
 11
721.654516
 21
346.009841
 31
0.0
 11
714.479386
 21
353.184971
 31
0.0
 11
704.384862
 21
355.915595
 31
0.0
  0
ENDSEC
  0
SECTION
  2
OBJECTS
  0
DICTIONARY
  5
C
330
0
100
AcDbDictionary
  3
ACAD_GROUP
350
D
  3
ACAD_MLINESTYLE
350
17
  0
DICTIONARY
  5
D
330
C
100
AcDbDictionary
  0
DICTIONARY
  5
1A
330
C
100
AcDbDictionary
  0
DICTIONARY
  5
17
330
C
100
AcDbDictionary
  3
STANDARD
350
18
  0
DICTIONARY
  5
19
330
C
100
AcDbDictionary
  0
ENDSEC
  0
EOF
